<?xml version="1.0" encoding="UTF-8"?>
<svg id="a" data-name="bling-bell" xmlns="http://www.w3.org/2000/svg" viewBox="0 0 654.21 654.21">
  <defs>
    <style>
      .b {
        fill: #fc0;
      }
    </style>
  </defs>
  <path class="b" d="M372.13,493.17c0,12.6-5.11,24.01-13.36,32.25-8.25,8.25-19.65,13.36-32.25,13.36s-24.01-5.11-32.25-13.36c-8.25-8.25-13.36-19.65-13.36-32.25,0-1.83,.1-3.62,.32-5.39,14.53,3.5,29.71,5.34,45.31,5.34s30.77-1.84,45.31-5.34c.22,1.77,.32,3.57,.32,5.39h-.04Z"/>
  <path class="b" d="M277.86,149.16c-15.89,5.13-30.69,12.69-43.94,22.27-3.95,2.84-7.76,5.87-11.42,9.07-5.48,4.77-10.63,9.92-15.41,15.41-2.87,3.3-5.62,6.71-8.21,10.25-7.86,10.68-14.41,22.39-19.42,34.88-1.19,2.95-2.28,5.95-3.29,9l-33.17-10.8c.19-.58,.37-1.15,.57-1.72,5.96-17.49,14.37-33.86,24.81-48.69l2.28-3.18c11.94-16.27,26.37-30.6,42.74-42.42l4.8-3.37c13.15-8.92,27.46-16.26,42.64-21.74l6.22-2.12,10.77,33.17h.03Z"/>
  <path class="b" d="M510,239.24l-33.17,10.78c-1-3.05-2.1-6.05-3.29-9-5.01-12.49-11.56-24.2-19.41-34.88-2.59-3.53-5.33-6.94-8.21-10.24-4.77-5.48-9.93-10.64-15.41-15.41-3.67-3.2-7.47-6.22-11.42-9.07-13.25-9.58-28.05-17.15-43.94-22.27l10.78-33.15,6.22,2.12c15.19,5.48,29.49,12.82,42.64,21.74l4.8,3.37c8.38,6.06,16.25,12.76,23.54,20.05,6.95,6.95,13.37,14.43,19.2,22.38,.78,1.06,1.54,2.12,2.3,3.21,10.43,14.82,18.82,31.18,24.78,48.66,.2,.57,.38,1.14,.57,1.72h.02Z"/>
  <path class="b" d="M473.55,405.7v70.04H179.45v-70.04l18.44-13.38,9.2-6.68v-86.76c.1-12.85,2.25-25.22,6.11-36.81,.25-.75,.51-1.49,.77-2.23s.53-1.48,.81-2.21c.5-1.3,1.01-2.6,1.55-3.89,.16-.39,.33-.79,.51-1.18,.18-.44,.37-.88,.57-1.31,.24-.53,.49-1.08,.73-1.61,.31-.65,.62-1.3,.94-1.95,.32-.66,.65-1.31,.98-1.97h0c.37-.74,.75-1.46,1.14-2.18,.37-.7,.76-1.4,1.15-2.1l.06-.11c.37-.64,.73-1.27,1.1-1.91,.05-.07,.08-.15,.13-.22,.26-.44,.53-.89,.8-1.33,1.83-3.03,3.82-5.96,5.91-8.8,7.38-10.01,16.3-18.82,26.4-26.09,9.99-7.19,21.13-12.88,33.1-16.72,11.54-3.72,23.84-5.72,36.6-5.72s25.06,2,36.6,5.72c11.96,3.85,23.11,9.54,33.09,16.72,5.25,3.78,10.18,7.96,14.74,12.53,4.22,4.22,8.12,8.75,11.67,13.56,7.35,9.94,13.19,21.07,17.18,33.03,3.87,11.59,6.01,23.96,6.11,36.81v86.76l9.2,6.67,18.43,13.39,.02-.04h.06Z"/>
</svg>