<svg id="a" xmlns="http://www.w3.org/2000/svg" viewBox="0 0 300 150">
  <g>
    <path d="M153.35,103.69c-.13,10.7-16.52,9.72-15.39-.91,4.88,1.2,10.46,1.2,15.34,0,.04,.3,.05,.6,.05,.91Z" style="fill: #fc0;"/>
    <path d="M137.39,45.44c-8.05,2.57-14.58,9.05-17.22,17.07l-5.61-1.82c3.2-9.8,11.18-17.73,21.01-20.86l1.82,5.61h0Z" style="fill: #fc0;"/>
    <path d="M176.69,60.7l-5.61,1.82c-2.64-8.03-9.16-14.5-17.22-17.08l1.82-5.61c9.83,3.14,17.8,11.06,21.01,20.87Z" style="fill: #fc0;"/>
    <path d="M170.52,88.88v11.86h-49.79v-11.86c1.04-.75,3.68-2.67,4.68-3.4,.3-6.2-1.19-18.18,2.2-23.68h0c6.17-13.16,26.05-14.8,34.28-2.82,5.55,6.23,3.65,18.88,3.95,26.51,.99,.72,3.66,2.65,4.68,3.4h0Z" style="fill: #fc0;"/>
  </g>
  <g>
    <path d="M58.14,100.8V29.98h28.18c7.95,0,14.23,1.93,18.83,5.78,4.6,3.85,6.9,9.69,6.9,17.52,0,16.03-8.36,24.04-25.08,24.04h-10.43v23.48h-18.41Zm18.41-55.98v17.66h3.1c1.75,0,3.08-.01,3.99-.05,.91-.03,2.07-.2,3.48-.52,1.41-.31,2.46-.75,3.15-1.31,.69-.56,1.3-1.41,1.83-2.54,.53-1.13,.8-2.54,.8-4.23s-.25-3.21-.75-4.37c-.5-1.16-1.1-2.05-1.78-2.68-.69-.63-1.71-1.08-3.05-1.36-1.35-.28-2.51-.45-3.48-.52-.97-.06-2.36-.09-4.18-.09h-3.1Z" style="fill: #fff;"/>
    <path d="M200.53,94.23l-23.29-41.61h19.72l12.87,24.7,12.59-24.7h19.44l-38.6,72.23h-19.16l16.44-30.62Z" style="fill: #fff;"/>
  </g>
</svg>