
<svg id="b" data-name="Capa 2" xmlns="http://www.w3.org/2000/svg" viewBox="0 0 1468.44 734.22">
<style>
.a{
  opacity: 10%;
}
.b{
  opacity: 20%;
}
.c{
  opacity: 30%;
}

</style>
    <g>
      <path class="a" d="M1468.44,734.22C1468.44,328.72,1139.72,0,734.22,0S0,328.72,0,734.22H280.44c0-250.62,203.17-453.78,453.78-453.78s453.79,203.16,453.79,453.78" style="fill: #fcfcfc;"/>
      <path class="b" d="M1014.68,734.22c0-154.89-125.56-280.46-280.46-280.46s-280.46,125.57-280.46,280.46h107.13c0-95.73,77.6-173.34,173.33-173.34s173.34,77.61,173.34,173.34h107.12Z" style="fill: #fff;"/>
      <path class="c" d="M841.35,734.22c0-59.17-47.96-107.13-107.13-107.13s-107.13,47.96-107.13,107.13h214.26Z" style="fill: #fff;"/>
    </g>

</svg>