<?xml version="1.0" encoding="UTF-8"?>
<svg id="a" data-name="Capa 1" xmlns="http://www.w3.org/2000/svg" viewBox="0 0 300 150">
  <defs>
    <style>
      .b {
        fill: #0069aa;
      }

      .c {
        fill: #fffffe;
      }
    </style>
  </defs>
  <path class="c" d="M143.23,32.43c-23.46,0-42.48,19.02-42.48,42.49,0,23.46,19.01,42.47,42.48,42.48,23.46,0,42.48-19.01,42.48-42.48,0-23.46-19.02-42.48-42.48-42.49Zm-9.64,67.61c-10.1-3.88-17.26-13.65-17.28-25.12,.03-11.47,7.19-21.24,17.28-25.13v50.25Zm19.28,.01V49.78c10.11,3.88,17.28,13.66,17.3,25.13-.02,11.48-7.19,21.25-17.3,25.13Z"/>
  <path class="b" d="M155.16,28.59h-12.03c-25.68,0-46.81,19.14-46.81,46.81,0,25.32,21.13,46.12,46.81,46h12.03c25.37,0,48.53-20.69,48.53-46,0-27.68-23.16-46.82-48.53-46.81Zm-12.1,92.01c-24.74,0-44.8-20.06-44.8-44.81s20.06-44.81,44.8-44.81,44.81,20.06,44.81,44.81-20.06,44.81-44.81,44.81Z"/>
  <path class="b" d="M152.86,49.78v50.27c10.11-3.88,17.28-13.66,17.3-25.13-.02-11.47-7.19-21.26-17.3-25.13Z"/>
  <path class="b" d="M116.3,74.92c.03,11.47,7.19,21.24,17.28,25.12V49.79c-10.1,3.89-17.26,13.66-17.28,25.13Z"/>
  <path class="b" d="M143.06,31c-24.74,0-44.8,20.06-44.8,44.81s20.06,44.81,44.8,44.81,44.81-20.06,44.81-44.81-20.06-44.81-44.81-44.81Zm.17,86.4c-23.46,0-42.48-19.01-42.48-42.48,0-23.46,19.01-42.48,42.48-42.49,23.46,0,42.48,19.02,42.48,42.49,0,23.46-19.02,42.47-42.48,42.48Z"/>
</svg>