
<svg id="b" data-name="Capa 2" xmlns="http://www.w3.org/2000/svg" viewBox="0 0 63.79 63.55">

  <defs>
    <style>
      .a { fill: #1e1e1e; }
 
    </style>
  </defs>
    <path class="a" d="M59.32,1.74c-.41-1.33-1.85-2.05-3.18-1.61h0c-1.3,.43-1.99,1.82-1.59,3.13,2.81,9.17,4.23,18.73,4.23,28.46s-1.43,19.34-4.26,28.57c-.4,1.31,.29,2.7,1.59,3.13h0c1.32,.44,2.77-.28,3.18-1.61,2.98-9.72,4.49-19.83,4.49-30.09s-1.5-20.31-4.47-29.98Z" />
    <path class="a" d="M38.77,5.76l-.95,.32c-1.27,.43-1.99,1.78-1.6,3.07,2.22,7.33,3.34,14.92,3.34,22.57s-1.11,15.17-3.3,22.46c-.39,1.28,.33,2.64,1.6,3.07l.95,.32c1.35,.45,2.79-.31,3.2-1.67,2.36-7.85,3.55-15.96,3.55-24.17s-1.21-16.39-3.59-24.29c-.41-1.36-1.85-2.12-3.2-1.67Z" />
    <path class="a" d="M3.57,17.18l-1.89,.66c-1.25,.43-1.94,1.76-1.58,3.03,1,3.53,1.5,7.17,1.5,10.85,0,3.49-.46,6.96-1.36,10.35-.34,1.28,.37,2.6,1.63,3.01l1.9,.63c1.37,.45,2.83-.34,3.21-1.73,1.08-4.01,1.63-8.12,1.63-12.26,0-4.37-.6-8.69-1.8-12.87-.39-1.38-1.88-2.14-3.23-1.67Z" />
    <path class="a" d="M21.41,11.39l-1.89,.64c-1.26,.43-1.98,1.77-1.6,3.04,1.6,5.42,2.41,11.01,2.41,16.65s-.78,11.04-2.31,16.33c-.37,1.28,.35,2.61,1.61,3.03l1.9,.63c1.35,.45,2.81-.32,3.21-1.69,1.73-5.94,2.6-12.09,2.6-18.31s-.91-12.58-2.7-18.65c-.4-1.37-1.86-2.14-3.21-1.68Z" />

</svg>