<svg id="a" xmlns="http://www.w3.org/2000/svg" viewBox="0 0 300 150">
  <defs>
    <style>
      .b { fill: #fe0015; }
      .c { fill: #fe5e00; }
      .d { fill: #fea000; }
    </style>
  </defs>
  <path class="d" d="M186.64,16.91c-13.89,0-26.65,4.88-36.64,13.02,13.09,10.65,21.45,26.89,21.45,45.08s-8.36,34.43-21.45,45.08c10,8.14,22.75,13.02,36.64,13.02,32.08,0,58.09-26.01,58.09-58.09s-26.01-58.09-58.09-58.09Z"/>
  <path class="b" d="M128.55,75c0-18.19,8.36-34.43,21.45-45.08-10-8.14-22.75-13.02-36.64-13.02-32.08,0-58.09,26.01-58.09,58.09s26.01,58.09,58.09,58.09c13.89,0,26.65-4.88,36.64-13.02-13.09-10.65-21.45-26.89-21.45-45.08Z"/>
  <path class="c" d="M171.45,75c0-18.19-8.36-34.43-21.45-45.08-13.09,10.65-21.45,26.89-21.45,45.08s8.36,34.43,21.45,45.08c13.09-10.65,21.45-26.89,21.45-45.08Z"/>
</svg>