<?xml version="1.0" encoding="UTF-8"?>
<svg id="a" data-name="Capa 1" xmlns="http://www.w3.org/2000/svg" viewBox="0 0 300 150">
  <defs>
    <style>
      .b {
        fill: #1368b9;
      }

      .c {
        fill: #0a6cc0;
      }

      .d {
        fill: #026dd0;
      }

      .e {
        fill: #016dd0;
      }

      .f {
        fill: #076cc5;
      }

      .g {
        fill: none;
      }

      .h {
        fill: #076dc4;
      }

      .i {
        fill: #0c69c8;
      }
    </style>
  </defs>
  <path class="g" d="M61.49,64.51c-12.09,15.26,4.06,33.52,19.42,26.36-.09-.02-.17-.03-.27-.06,1.91-1.54,3.82-3.05,5.79-4.51,.05,.16,.11,.32,.16,.47,17.37-19.14-7.2-43.13-25.1-22.27Z"/>
  <path class="e" d="M92.23,39.96C55.05,24.37,15.32,80.11,49.75,106.25c42.33,28.2,91.82-43.29,42.48-66.29Zm-5.15,15.45c.81,3.27-2.31,4.03-4.51,1.93q2.33-1.93,4.51-1.93Zm0,32.82c-3.16,0-2.83,3.41-6.17,2.63-15.36,7.16-31.51-11.09-19.42-26.36,17.9-20.86,42.47,3.13,25.1,22.27,.16,.48,.32,.96,.49,1.46Z"/>
  <path class="e" d="M253.13,39.96c-5.57-1.73-15.34-.4-21.7-.85-11.69-1.8-13.09,13.18-18.52,20.46-8.25,16.99-19.71,32.81-26.08,50.55,4.43,.13,18.9,1.03,20.3-.12,11.21-20.08,12.86-22.66,27.97-51.37,1.74,7.6,2.09,15.46,3.22,23.17-2.77,.68-7.66-.4-10.42,.56,.36-.02,.79-.02,1.3,.02,2.83,.02,5.66,.04,8.49,.06v.64c-4.27,.44-10.31-.65-11.59,3.86,.11-1.05-.08-2.05-.08-2.84-.23,.7-.24,1.63,.08,2.84,1.84,1.74,3.97,3.45,6.09,5.24-.28-.51-.18-1.12,.34-2.02,2.28,.19,2.22,1.96,2.57,3.86-.71-.32-1.3-.6-1.78-.86,4.82,4.19,9.26,8.94,9.5,15.67-.21,1.74,13.97,1.02,20.6,1.29-2.23-23.42-6.71-46.9-10.3-70.15Z"/>
  <path class="d" d="M185.06,88.56c-4.44-2.02-8.33-5.43-13.36-5.42-1.85,.55-4.17,3.17-5.04,4.02-8.46,8.54-25.84,5.17-27.79-7.61-2.84-17.89,21.29-30.5,33.17-15.78,5.5,.91,9.87-2.61,14.66-4.71,7.89-3.22-.57-11.21-4.36-14.36-35.5-25.67-85.84,23.05-55.87,57.44,15.73,15.15,41.94,11.16,56.02-4.28,2.54-2.38,6.59-6.41,2.58-9.32Zm-.8,6.12c.39-3.28-3.37-2.12-3.22-4.51h1.29c.68-2.35-3.24-1.5-2.57-3.86,3.63,1.8,10.66,4.78,4.51,8.37Z"/>
  <path class="h" d="M179.76,86.3c-.67,2.36,3.25,1.51,2.57,3.86h-1.29c-.15,2.39,3.61,1.22,3.22,4.51,6.16-3.59-.87-6.57-4.51-8.37Z"/>
  <path class="b" d="M227.9,82.36c-1.56,.1-1.88,.77-1.88,1.75,.3-.89,.97-1.43,1.88-1.75Z"/>
  <path class="b" d="M226.1,86.95c1.27-4.51,7.31-3.42,11.59-3.86v-.64c-2.83-.03-5.66-.04-8.49-.06-.51-.04-.93-.05-1.3-.02-.91,.32-1.59,.85-1.88,1.75,0,.79,.19,1.79,.08,2.84Z"/>
  <path class="c" d="M80.64,90.81c.1,.03,.18,.04,.27,.06,1.59-.74,3.18-1.76,4.72-3.08,.34-.34,.65-.67,.96-1.01-.05-.16-.11-.32-.16-.47-1.97,1.46-3.89,2.97-5.79,4.51Z"/>
  <path class="c" d="M80.91,90.87c3.34,.77,3-2.63,6.17-2.63-.17-.5-.33-.98-.49-1.46-.31,.34-.63,.68-.96,1.01-1.54,1.32-3.13,2.34-4.72,3.08Z"/>
  <path class="f" d="M87.08,55.41q-2.17,0-4.51,1.93c2.19,2.09,5.31,1.34,4.51-1.93Z"/>
  <path class="i" d="M233.34,93.16c-.38-.33-.76-.65-1.14-.98,.2,.36,.58,.66,1.14,.98Z"/>
  <path class="i" d="M232.54,90.17c-.53,.9-.63,1.51-.34,2.02,.38,.32,.76,.65,1.14,.98,.47,.27,1.07,.54,1.78,.86-.35-1.9-.29-3.67-2.57-3.86Z"/>
</svg>