<svg id="a" xmlns="http://www.w3.org/2000/svg" viewBox="0 0 300 150">
  <defs>
    <style>
      .b {
        fill: #1333cb;
        fill-rule: evenodd;
      }
    </style>
  </defs>
  <path class="b" d="M178.75,39.61c5.9-.11,11.69,.76,17.36,2.62,.34,.1,.65,.24,.93,.42-1.06,4.68-2.13,9.36-3.2,14.04-5.34-2.41-10.92-3.43-16.72-3.07-2.07,.16-4,.76-5.77,1.8-1.07,.7-1.84,1.63-2.3,2.79-.31,1.06-.17,2.08,.41,3.04,.51,.74,1.12,1.38,1.83,1.95,.9,.65,1.83,1.25,2.8,1.8,2.46,1.31,4.92,2.61,7.4,3.89,2.76,1.49,5.28,3.3,7.54,5.44,3.8,3.98,5.32,8.68,4.54,14.1-.88,6.36-4.05,11.31-9.52,14.86-3.4,2.12-7.09,3.58-11.07,4.4-6.04,1.18-12.09,1.29-18.17,.34-4.02-.59-7.93-1.61-11.71-3.04-.03-.03-.05-.07-.06-.11,1.05-4.85,2.14-9.69,3.26-14.52,5.26,2.73,10.88,4.19,16.86,4.4,1.84,.04,3.69-.16,5.56-.59,2.03-.47,3.75-1.44,5.16-2.9,1.82-2.46,1.62-4.75-.61-6.88-.94-.84-1.95-1.58-3.03-2.23-2.74-1.51-5.5-3-8.27-4.45-2.61-1.41-4.99-3.13-7.14-5.16-3.48-3.56-4.93-7.78-4.37-12.69,.55-5.17,2.81-9.48,6.79-12.94,3.44-2.83,7.36-4.8,11.77-5.92,3.2-.82,6.44-1.28,9.73-1.38Z"/>
  <path class="b" d="M37.08,40.68c10.14,0,20.27,0,30.41,.03,3.25,.19,5.63,1.67,7.14,4.43,.28,.6,.5,1.22,.64,1.86,2.56,13.04,5.13,26.09,7.69,39.13,6.18-15.13,12.37-30.26,18.55-45.39,6.23-.08,12.47-.08,18.7,0-9.61,22.25-19.22,44.51-28.83,66.76-6.27,.06-12.54,.07-18.82,.06-4.81-18.11-9.66-36.21-14.53-54.3-.59-2.17-1.9-3.8-3.93-4.88-5.55-2.59-11.35-4.44-17.42-5.55,.12-.72,.26-1.43,.41-2.14Z"/>
  <path class="b" d="M127.72,40.68h17.77c-4.85,22.29-9.7,44.58-14.56,66.87h-17.82c4.87-22.29,9.75-44.58,14.62-66.87Z"/>
  <path class="b" d="M226.51,40.68h15.73c4.77,22.28,9.57,44.55,14.39,66.82-5.49,.07-10.99,.07-16.49,.03-.75-3.33-1.49-6.67-2.21-10.01-7.61-.06-15.22-.07-22.83-.06-1.16,3.35-2.35,6.7-3.55,10.04-6.23,.07-12.47,.07-18.7,0,8.83-20.51,17.65-41.01,26.48-61.52,.68-1.44,1.62-2.69,2.83-3.75,1.29-.95,2.75-1.46,4.37-1.55Zm3.09,18.1c1.9,8.35,3.74,16.71,5.53,25.09-4.93,.02-9.86,0-14.8-.06,3.09-8.35,6.18-16.69,9.26-25.04Z"/>
</svg>