<?xml version="1.0" encoding="UTF-8"?>
<svg id="a" data-name="Capa 1 copia" xmlns="http://www.w3.org/2000/svg" viewBox="0 0 1920 800">
  <path d="M1895.98,728.94c.98,0,1.77,.79,1.77,1.77s-.79,1.77-1.77,1.77" style="fill: #2f2e43;"/>
  <path d="M1098.57,732.48c-.98,0-1.77-.79-1.77-1.77s.79-1.77,1.77-1.77" style="fill: #2f2e43;"/>
  <g>
    <path d="M268.71,334.75c-19.01,6.14-36.72,15.18-52.57,26.64-4.73,3.4-9.28,7.02-13.66,10.85-6.56,5.71-12.72,11.87-18.44,18.44-3.43,3.95-6.72,8.03-9.82,12.26-9.4,12.78-17.24,26.79-23.23,41.73-1.42,3.53-2.73,7.12-3.94,10.77l-39.68-12.92c.23-.69,.44-1.38,.68-2.06,7.13-20.93,17.19-40.51,29.68-58.25l2.73-3.8c14.29-19.47,31.55-36.61,51.13-50.75l5.74-4.03c15.73-10.67,32.85-19.45,51.01-26.01l7.44-2.54,12.89,39.68h.04Z" style="fill: #fc0;"/>
    <path d="M546.44,442.53l-39.68,12.9c-1.2-3.65-2.51-7.24-3.94-10.77-5.99-14.94-13.83-28.95-23.22-41.73-3.1-4.22-6.38-8.3-9.82-12.25-5.71-6.56-11.88-12.73-18.44-18.44-4.39-3.83-8.94-7.44-13.66-10.85-15.85-11.46-33.56-20.52-52.57-26.64l12.9-39.66,7.44,2.54c18.17,6.56,35.28,15.34,51.01,26.01l5.74,4.03c10.03,7.25,19.44,15.27,28.16,23.99,8.32,8.32,16,17.26,22.97,26.78,.93,1.27,1.84,2.54,2.75,3.84,12.48,17.73,22.52,37.3,29.65,58.22" style="fill: #fc0;"/>
    <path d="M502.83,641.68v83.8H150.97v-83.8l22.06-16.01,11.01-7.99v-103.8c.12-15.37,2.69-30.17,7.31-44.04,.3-.9,.61-1.78,.92-2.67s.63-1.77,.97-2.64c.6-1.56,1.21-3.11,1.85-4.65,.19-.47,.39-.95,.61-1.41,.22-.53,.44-1.05,.68-1.57,.29-.63,.59-1.29,.87-1.93,.37-.78,.74-1.56,1.12-2.33,.38-.79,.78-1.57,1.17-2.36h0c.44-.89,.9-1.75,1.36-2.61,.44-.84,.91-1.67,1.38-2.51l.07-.13c.44-.77,.87-1.52,1.32-2.29,.06-.08,.1-.18,.16-.26,.31-.53,.63-1.06,.96-1.59,2.19-3.63,4.57-7.13,7.07-10.53,8.83-11.98,19.5-22.52,31.59-31.21,11.95-8.6,25.28-15.41,39.6-20,13.81-4.45,28.52-6.84,43.79-6.84s29.98,2.39,43.79,6.84c14.31,4.61,27.65,11.41,39.59,20,6.28,4.52,12.18,9.52,17.64,14.99,5.05,5.05,9.71,10.47,13.96,16.22,8.79,11.89,15.78,25.21,20.55,39.52,4.63,13.87,7.19,28.67,7.31,44.04v103.8l11.01,7.98,22.05,16.02,.02-.05h.07Z" style="fill: #fc0;"/>
    <polygon points="589.92 773.5 310.84 767.76 46.1 725.48 761.96 725.48 589.92 773.5" style="fill: #94a3b8; opacity: .1;"/>
  </g>
  <g>
    <path d="M512.51,283.2s-7.82,23.45-3.47,28.67-26.06-15.64-26.06-15.64l16.51-19.11,13.03,6.08Z" style="fill: #a0616a;"/>
    <circle cx="494.68" cy="244.16" r="39" style="fill: #2f2e41;"/>
    <polygon points="646.29 547.29 626.31 562.93 615.01 544.68 634.99 530.78 646.29 547.29" style="fill: #a0616a;"/>
    <path d="M618.05,665l5.21,25.19,14.77,19.98s39.96,12.16,13.03,18.24c-26.93,6.08-33.01-4.34-33.01-4.34l-19.11-16.51v22.59h-12.16l-2.61-32.14s-1.74-9.56,6.08-19.98l1.74-15.64,26.06,2.61Z" style="fill: #2f2e41;"/>
    <path d="M517.28,353.13l6.95,39.96s73.84-7.82,79.05,6.95,6.95,19.11,6.95,19.11l-14.77,5.21-6.95-13.03c-4.28-1.51-8.99-1.2-13.03,.87-6.95,3.47-67.76,12.16-72.1,.87-4.34-11.29-16.51-52.99-16.51-52.99l18.24-14.77,12.16,7.82Z" style="fill: #a0616a;"/>
    <path d="M517.28,353.13l6.95,39.96s73.84-7.82,79.05,6.95,6.95,19.11,6.95,19.11l-14.77,5.21-6.95-13.03c-4.28-1.51-8.99-1.2-13.03,.87-6.95,3.47-67.76,12.16-72.1,.87-4.34-11.29-16.51-52.99-16.51-52.99l18.24-14.77,12.16,7.82Z" style="isolation: isolate; opacity: .1;"/>
    <path d="M558.11,468.67l6.08,20.85,15.64,79.92s1.74,59.07,4.34,66.02,2.61,7.82,0,10.42-7.82,11.29,0,16.51,35.62,11.29,36.49,5.21,.87-15.64,0-19.98,2.61-72.1,2.61-72.1l-10.42-103.38-35.62-16.51-19.11,13.03Z" style="fill: #2f2e41;"/>
    <path d="M558.11,468.67l6.08,20.85,15.64,79.92s1.74,59.07,4.34,66.02,2.61,7.82,0,10.42-7.82,11.29,0,16.51,35.62,11.29,36.49,5.21,.87-15.64,0-19.98,2.61-72.1,2.61-72.1l-10.42-103.38-35.62-16.51-19.11,13.03Z" style="isolation: isolate; opacity: .1;"/>
    <path d="M595.47,387.01l19.11,36.49s109.46,48.65,99.9,68.63c-9.56,19.98-62.55,57.33-62.55,57.33,0,0-2.61,14.77-10.42,10.42s-26.93-26.93-25.19-29.54,7.82-8.69,10.42-7.82,33.01-22.59,33.01-22.59l-52.12-13.03s-62.55-1.74-66.02-31.27,0-34.75,0-34.75l-4.34-9.56,35.62-21.72,22.59-2.61Z" style="fill: #2f2e41;"/>
    <path d="M622.4,531.22l-18.24,16.51s-15.64-6.95-25.19-4.34c-9.56,2.61-26.06,4.34-26.06,4.34l2.61,14.77,22.16-4.09-17.82,24.94s0,39.09,11.29,39.09,7.82-23.45,7.82-23.45l34.75-26.93s17.37-6.95,19.11-6.95-10.42-33.88-10.42-33.88Z" style="fill: #2f2e41;"/>
    <circle cx="509.03" cy="260.62" r="29.54" style="fill: #a0616a;"/>
    <path d="M479.93,283.64s13.9-3.47,18.24,0,5.21,11.29,11.29,12.16,11.29,.87,12.16,1.74,20.85,25.19,20.85,25.19c0,0,12.16,6.95,14.77,16.51s28.67,41.7,32.14,45.17-22.59,20.85-31.27,26.93c-8.69,6.08-33.88,8.69-41.7-5.21-7.82-13.9-50.38-104.24-36.49-122.49Z" style="fill: #2d4d7c;"/>
    <path d="M512.94,340.1l6.95,39.96s73.84-7.82,79.05,6.95,6.95,19.11,6.95,19.11l-14.77,5.21-6.95-13.03c-4.28-1.51-8.99-1.2-13.03,.87-6.95,3.47-67.76,12.16-72.1,.87s-16.51-52.99-16.51-52.99l18.24-14.77,12.16,7.82Z" style="fill: #a0616a;"/>
    <path d="M496.34,287.29s20.94,44.12,19.21,56.29c-1.74,12.16-7.82,3.47-7.82,3.47,0,0-7.82-12.16-11.29-5.21s-7.82,16.51-11.29,15.64-22.59-65.15-12.16-71.23,23.36,1.05,23.36,1.05Z" style="fill: #335782;"/>
    <circle cx="452.42" cy="192.81" r="39" style="fill: #2f2e41;"/>
    <path d="M418.78,225.1c17.46,12.62,41.84,8.69,54.46-8.76,2.57-3.55,4.52-7.51,5.77-11.72-2.69,21.37-22.19,36.52-43.57,33.83-21.37-2.69-36.52-22.19-33.83-43.57,.27-2.12,.71-4.21,1.32-6.26-1.78,14.14,4.3,28.13,15.85,36.47Z" style="fill: #2f2e41;"/>
    <circle cx="486.65" cy="250.66" r="28.6" style="fill: #2f2e41;"/>
    <ellipse cx="508.33" cy="239.94" rx="25.35" ry="19.83" style="fill: #2f2e41;"/>
    <ellipse cx="509.47" cy="263.66" rx="5.65" ry="9.99" style="fill: #a0616a;"/>
    <path d="M586.97,410.96s15.38-8.82,18.23-6.61,4.12,9.14,4.12,9.14l-17.77,6.98-5.21-9.56,.63,.05Z" style="fill: #2f2e41;"/>
  </g>
  <path d="M1434.55,610.35l-295.1,3.32c-146.46,1.65-292.19-9.46-428.44-32.66l-19.95-3.4c-4.64-.79-4.06-7.62,.64-7.62h980.83l-237.98,40.36Z" style="fill: #94a3b8; opacity: .1;"/>
  <g>
    <polygon points="1758.29 559.27 1747.74 570.35 1736.49 559.95 1747.04 548.87 1758.29 559.27" style="fill: #ec9c9f;"/>
    <path d="M1766.72,570.61l-22.43,23.55c-1.92,2.01-4.31,3.6-6.92,4.6l-6.25,2.38c-1.29,.49-2.78,.21-3.79-.73-1.19-1.1-1.49-2.85-.73-4.27l6.01-11.28,6.42-22.88,.07,.04c1.75,1.08,4.39,2.69,4.58,2.76,3.32,.12,5.7-.72,7.07-2.48,2.39-3.08,.87-8,.86-8.04v-.04s.02-.03,.02-.03c.7-.59,1.43-.83,2.18-.71,1.59,.27,2.73,2.06,2.9,2.33,1.49-.06,6.08,3.53,6.45,3.82,2.25,0,3.9,.53,4.91,1.59,.88,.93,1.26,2.24,1.14,3.91-.15,2.01-1.03,3.95-2.48,5.48h0Z" style="fill: #090814;"/>
    <rect x="1730.69" y="572.02" width="15.42" height="15.19" style="fill: #ec9c9f;"/>
    <path d="M1743.48,601.03h-32.77c-2.8,0-5.62-.63-8.14-1.83l-6.04-2.86c-1.25-.59-2.06-1.86-2.06-3.22,0-1.6,1.09-3.02,2.66-3.45l12.47-3.4,21.32-11.04,.02,.08c.4,1.99,1.02,5,1.1,5.18,2.19,2.47,4.43,3.61,6.68,3.38,3.91-.39,6.52-4.84,6.54-4.89l.02-.03h.04c.92,.1,1.59,.46,2.01,1.09,.89,1.33,.35,3.37,.26,3.68,1.07,1.03,1.55,6.79,1.59,7.25,1.55,1.61,2.28,3.17,2.18,4.61-.09,1.26-.8,2.44-2.12,3.49-1.59,1.27-3.63,1.96-5.75,1.96Z" style="fill: #090814;"/>
    <polygon points="1747.94 380.7 1693.3 380.73 1675.09 494.34 1729.73 559.28 1747.94 543.04 1704.76 494.34 1747.94 380.7" style="fill: #090814;"/>
    <polygon points="1715.65 397.45 1747.94 380.7 1747.94 575.51 1729.73 576.01 1715.65 397.45" style="fill: #090814;"/>
    <path d="M1683.3,426.26l.38-17.73-10.35-.22-.38,17.73c-1.93,1.79-3.21,4.58-3.28,7.74-.12,5.53,3.49,10.09,8.07,10.19,4.57,.1,8.38-4.3,8.5-9.83,.07-3.16-1.08-6-2.94-7.87Z" style="fill: #ec9c9f;"/>
    <path d="M1733.89,259.94c0-10.98-8.9-19.88-19.88-19.88s-21.3,3.61-19.88,19.88,2.51,21,13.92,18.97l3.84,25.4,19.59-16.33s-4.23-5.39-6.5-11.47c5.37-3.56,8.9-9.65,8.9-16.57h0Z" style="fill: #ec9c9f;"/>
    <path d="M1723.56,276.74s-5.75-5-2.52-10.02,2.5-8.97,.96-10.63c-4.31-4.64-5.72,6.45-5.72,6.45l-2.96-.27s2.21-5.36-1.06-7.62c-1.1-.76-1.64-2.09-1.24-3.37l.34-1.09c.42-1.33-.73-2.62-2.1-2.37-4.78,.89-13.56,2.39-13.86,1.33-3.25-11.43,29.25-21.66,37.83-4.21,13.34,27.13-9.67,31.79-9.67,31.79h0Z" style="fill: #090814;"/>
    <path d="M1706,294.45h0c-14.43,2.82-25.27,14.84-26.58,29.49l-8.98,100.18h15.77l19.8-129.66Z" style="fill: #edc51b;"/>
    <path d="M1691.09,374.26l-2.46,28.28,66.65-19.6-8.12-20.44,15.12-34.73-30.87-44.25-24.64,1.68-9.52,12.32s-10.84,14.55-11.01,26.28c-.07,4.76,.84,8.4,2.14,11.15,4.72,9.98,5.91,21.27,3.98,32.15l-1.27,7.16Z" style="fill: #fc0;"/>
    <path d="M1745.44,401.12l9.3-15.11-8.82-5.43-9.3,15.11c-2.57,.57-5.08,2.33-6.74,5.02-2.9,4.71-2.09,10.47,1.81,12.87,3.9,2.4,9.41,.52,12.3-4.18,1.66-2.69,2.1-5.72,1.45-8.28h0Z" style="fill: #ec9c9f;"/>
    <path d="M1726.38,284.09l5.37-.22,9.19,6.94c10.89,1.86,14.05,2.38,17.38,9.57,1.4,3.02,2.33,6.24,2.85,9.53l7.77,49.23-19.54,47.05-12.95-14.56,13.84-36.78-6.6-12.89c-6.31-17.94-10.52-26.44-11.91-40.61h0" style="fill: #ffd62c;"/>
    <path d="M1765.33,248.94c.61,1.17-7.74,8.88-19.15,6.79-7.91-1.45-18.75-7.88-19.54-15.68-.65-6.51,5.48-10.09,10.75-8.58,4.44,1.27,8.22,5.35,9.38,9.73,1.06,3.99,.04,5.32,1.45,6.99,3.96,4.66,16.44-.54,17.11,.75Z" style="fill: #090814;"/>
  </g>
  <g>
    <rect x="750.49" y="432.28" width="59.26" height="137.7" style="fill: #efefef;"/>
    <rect x="846.74" y="382.17" width="59.26" height="187.81" style="fill: #f1eacd;"/>
    <rect x="943" y="332.07" width="59.26" height="237.91" style="fill: #f4e5ab;"/>
    <rect x="1039.26" y="281.96" width="59.26" height="288.02" style="fill: #f6e089;"/>
    <rect x="1135.52" y="231.85" width="59.26" height="338.13" style="fill: #f8db66;"/>
    <rect x="1231.78" y="181.75" width="59.26" height="388.24" style="fill: #fad644;"/>
    <rect x="1328.03" y="131.64" width="59.26" height="438.34" style="fill: #fdd122;"/>
    <rect x="1424.29" y="81.53" width="59.26" height="488.45" style="fill: #fc0;"/>
  </g>
  <path d="M1619.94,86.92c0,12.6-5.11,24.01-13.36,32.25-8.25,8.25-19.65,13.36-32.25,13.36s-24.01-5.11-32.25-13.36c-8.25-8.25-13.36-19.65-13.36-32.25,0-1.83,.1-3.62,.32-5.39,14.53,3.5,29.71,5.34,45.31,5.34s30.77-1.84,45.31-5.34c.22,1.77,.32,3.57,.32,5.39h-.04Z" style="fill: #fc0;"/>
  <rect x="1511.27" y="52.86" width="324" height="100.95" rx="4.49" ry="4.49" style="fill: #94a3b8; opacity: .1;"/>
  <g>
    <rect x="1753.25" y="213.06" width="18.07" height="18.07" rx="2.48" ry="2.48" style="fill: #f7f7f7; opacity: .1;"/>
    <rect x="1782.15" y="187.74" width="21.14" height="21.14" rx="2.48" ry="2.48" style="fill: #f7f7f7; opacity: .1;"/>
    <rect x="1811.05" y="162.43" width="24.21" height="24.21" rx="2.48" ry="2.48" style="fill: #f7f7f7; opacity: .1;"/>
  </g>
  <g style="opacity: .5;">
    <line x1="1656.22" y1="81.53" x2="1656.22" y2="131.64" style="fill: none; stroke: #fff; stroke-miterlimit: 10; stroke-width: 2px;"/>
    <line x1="1678.87" y1="81.53" x2="1678.87" y2="131.64" style="fill: none; stroke: #fff; stroke-miterlimit: 10; stroke-width: 2px;"/>
    <line x1="1701.52" y1="81.53" x2="1701.52" y2="131.64" style="fill: none; stroke: #fff; stroke-miterlimit: 10; stroke-width: 2px;"/>
    <line x1="1724.17" y1="81.53" x2="1724.17" y2="131.64" style="fill: none; stroke: #fff; stroke-miterlimit: 10; stroke-width: 2px;"/>
    <line x1="1746.83" y1="81.53" x2="1746.83" y2="131.64" style="fill: none; stroke: #fff; stroke-miterlimit: 10; stroke-width: 2px;"/>
    <line x1="1769.48" y1="81.53" x2="1769.48" y2="131.64" style="fill: none; stroke: #fff; stroke-miterlimit: 10; stroke-width: 2px;"/>
    <line x1="1792.13" y1="81.53" x2="1792.13" y2="131.64" style="fill: none; stroke: #fff; stroke-miterlimit: 10; stroke-width: 2px;"/>
    <line x1="1814.78" y1="81.53" x2="1814.78" y2="131.64" style="fill: none; stroke: #fff; stroke-miterlimit: 10; stroke-width: 2px;"/>
  </g>
  <g>
    <line x1="1656.22" y1="115.3" x2="1656.22" y2="131.64" style="fill: none; stroke: #fc0; stroke-miterlimit: 10; stroke-width: 6px;"/>
    <line x1="1678.87" y1="110.48" x2="1678.87" y2="131.64" style="fill: none; stroke: #fc0; stroke-miterlimit: 10; stroke-width: 6px;"/>
    <line x1="1701.52" y1="105.65" x2="1701.52" y2="131.64" style="fill: none; stroke: #fc0; stroke-miterlimit: 10; stroke-width: 6px;"/>
    <line x1="1724.17" y1="100.83" x2="1724.17" y2="131.64" style="fill: none; stroke: #fc0; stroke-miterlimit: 10; stroke-width: 6px;"/>
    <line x1="1746.83" y1="96" x2="1746.83" y2="131.64" style="fill: none; stroke: #fc0; stroke-miterlimit: 10; stroke-width: 6px;"/>
    <line x1="1769.48" y1="91.18" x2="1769.48" y2="131.64" style="fill: none; stroke: #fc0; stroke-miterlimit: 10; stroke-width: 6px;"/>
    <line x1="1792.13" y1="86.36" x2="1792.13" y2="131.64" style="fill: none; stroke: #fc0; stroke-miterlimit: 10; stroke-width: 6px;"/>
    <line x1="1814.78" y1="81.53" x2="1814.78" y2="131.64" style="fill: none; stroke: #fc0; stroke-miterlimit: 10; stroke-width: 6px;"/>
  </g>
</svg>