<?xml version="1.0" encoding="UTF-8"?>
<svg id="a" xmlns="http://www.w3.org/2000/svg" viewBox="0 0 500 500">
  <path d="M233.9,148.87c-55.74,0-100.93,45.19-100.93,100.95s45.17,100.9,100.93,100.93c55.74,0,100.93-45.17,100.93-100.93s-45.19-100.93-100.93-100.95Zm-22.9,160.63c-24-9.22-41.01-32.43-41.06-59.68,.07-27.25,17.08-50.46,41.06-59.71v119.39Zm45.81,.02v-119.44c24.02,9.22,41.06,32.45,41.1,59.71-.05,27.28-17.08,50.49-41.1,59.71v.02Z" style="fill: #fffffe;"/>
  <path d="M262.25,139.75h-28.58c-61.01,0-111.22,45.47-111.22,111.22,0,60.16,50.2,109.58,111.22,109.29h28.58c60.28,0,115.3-49.16,115.3-109.29,0-65.76-55.03-111.24-115.3-111.22Zm-28.75,218.61c-58.78,0-106.44-47.66-106.44-106.46s47.66-106.46,106.44-106.46,106.46,47.66,106.46,106.46-47.66,106.46-106.46,106.46Z" style="fill: #0069aa;"/>
  <path d="M256.78,190.09v119.44c24.02-9.22,41.06-32.45,41.1-59.71-.05-27.25-17.08-50.51-41.1-59.71v-.02Z" style="fill: #0069aa;"/>
  <path d="M169.92,249.82c.07,27.25,17.08,50.46,41.06,59.68v-119.39c-24,9.24-41.01,32.45-41.06,59.71Z" style="fill: #0069aa;"/>
  <path d="M233.5,145.47c-58.78,0-106.44,47.66-106.44,106.46s47.66,106.46,106.44,106.46,106.46-47.66,106.46-106.46-47.66-106.46-106.46-106.46Zm.4,205.28c-55.74,0-100.93-45.17-100.93-100.93s45.17-100.93,100.93-100.95c55.74,0,100.93,45.19,100.93,100.95s-45.19,100.9-100.93,100.93Z" style="fill: #0069aa;"/>
</svg>