<?xml version="1.0" encoding="UTF-8"?>
<svg id="a" xmlns="http://www.w3.org/2000/svg" viewBox="0 0 500 500">
  <path d="M319.49,139.77c-26.34,0-50.55,9.26-69.49,24.69,24.83,20.2,40.68,51,40.68,85.5s-15.86,65.3-40.68,85.5c18.97,15.44,43.15,24.69,69.49,24.69,60.85,0,110.18-49.33,110.18-110.18s-49.33-110.18-110.18-110.18v-.04Z" style="fill: #fea000;"/>
  <path d="M209.32,249.94c0-34.5,15.86-65.3,40.68-85.5-18.97-15.44-43.15-24.69-69.49-24.69-60.85,0-110.18,49.33-110.18,110.18s49.33,110.18,110.18,110.18c26.34,0,50.55-9.26,69.49-24.69-24.83-20.2-40.68-51-40.68-85.5v.04Z" style="fill: #fe0015;"/>
  <path d="M290.68,249.94c0-34.5-15.86-65.3-40.68-85.5-24.83,20.2-40.68,51-40.68,85.5s15.86,65.3,40.68,85.5c24.83-20.2,40.68-51,40.68-85.5Z" style="fill: #fe5e00;"/>
</svg>