<?xml version="1.0" encoding="UTF-8"?>
<svg id="a" xmlns="http://www.w3.org/2000/svg" viewBox="0 0 500 500">
  <path d="M319.46,175.28c12.77-.24,25.3,1.64,37.57,5.67,.74,.22,1.41,.52,2.01,.91-2.29,10.13-4.61,20.26-6.93,30.38-11.56-5.22-23.63-7.42-36.18-6.64-4.48,.35-8.66,1.64-12.49,3.9-2.32,1.51-3.98,3.53-4.98,6.04-.67,2.29-.37,4.5,.89,6.58,1.1,1.6,2.42,2.99,3.96,4.22,1.95,1.41,3.96,2.71,6.06,3.9,5.32,2.83,10.65,5.65,16.01,8.42,5.97,3.22,11.43,7.14,16.32,11.77,8.22,8.61,11.51,18.78,9.83,30.51-1.9,13.76-8.76,24.48-20.6,32.16-7.36,4.59-15.34,7.75-23.96,9.52-13.07,2.55-26.16,2.79-39.32,.74-8.7-1.28-17.16-3.48-25.34-6.58-.06-.06-.11-.15-.13-.24,2.27-10.5,4.63-20.97,7.06-31.42,11.38,5.91,23.55,9.07,36.49,9.52,3.98,.09,7.99-.35,12.03-1.28,4.39-1.02,8.12-3.12,11.17-6.28,3.94-5.32,3.51-10.28-1.32-14.89-2.03-1.82-4.22-3.42-6.56-4.83-5.93-3.27-11.9-6.49-17.9-9.63-5.65-3.05-10.8-6.77-15.45-11.17-7.53-7.7-10.67-16.84-9.46-27.46,1.19-11.19,6.08-20.52,14.69-28,7.44-6.12,15.93-10.39,25.47-12.81,6.93-1.77,13.94-2.77,21.06-2.99v-.02Z" style="fill: #1333cb; fill-rule: evenodd;"/>
  <path d="M12.87,177.6c21.94,0,43.87,0,65.81,.06,7.03,.41,12.18,3.61,15.45,9.59,.61,1.3,1.08,2.64,1.39,4.03,5.54,28.22,11.1,56.46,16.64,84.68,13.37-32.74,26.77-65.49,40.14-98.23,13.48-.17,26.99-.17,40.47,0-20.8,48.15-41.59,96.32-62.39,144.48-13.57,.13-27.14,.15-40.73,.13-10.41-39.19-20.91-78.36-31.44-117.51-1.28-4.7-4.11-8.22-8.5-10.56-12.01-5.61-24.56-9.61-37.7-12.01,.26-1.56,.56-3.09,.89-4.63l-.02-.02Z" style="fill: #1333cb; fill-rule: evenodd;"/>
  <path d="M209.02,177.6h38.46c-10.5,48.24-20.99,96.48-31.51,144.71h-38.56c10.54-48.24,21.1-96.48,31.64-144.71h-.02Z" style="fill: #1333cb; fill-rule: evenodd;"/>
  <path d="M422.82,177.6h34.04c10.32,48.22,20.71,96.41,31.14,144.61-11.88,.15-23.78,.15-35.69,.06-1.62-7.21-3.22-14.43-4.78-21.66-16.47-.13-32.94-.15-49.41-.13-2.51,7.25-5.09,14.5-7.68,21.73-13.48,.15-26.99,.15-40.47,0,19.11-44.39,38.2-88.75,57.31-133.14,1.47-3.12,3.51-5.82,6.12-8.12,2.79-2.06,5.95-3.16,9.46-3.35h-.04Zm6.69,39.17c4.11,18.07,8.09,36.16,11.97,54.3-10.67,.04-21.34,0-32.03-.13,6.69-18.07,13.37-36.12,20.04-54.19l.02,.02Z" style="fill: #1333cb; fill-rule: evenodd;"/>
</svg>