<?xml version="1.0" standalone="no"?>
<!DOCTYPE svg PUBLIC "-//W3C//DTD SVG 20010904//EN"
 "http://www.w3.org/TR/2001/REC-SVG-20010904/DTD/svg10.dtd">
<svg version="1.0" xmlns="http://www.w3.org/2000/svg"
 width="700.000000pt" height="700.000000pt" viewBox="0 0 700.000000 700.000000"
 preserveAspectRatio="xMidYMid meet">
<metadata>
Created by potrace 1.14, written by Peter Selinger 2001-2017
</metadata>
<g transform="translate(0.000000,700.000000) scale(0.100000,-0.100000)"
fill="#000000" stroke="none">
<path d="M3280 6994 c-19 -2 -84 -9 -145 -14 -578 -56 -1180 -283 -1660 -625
-237 -169 -531 -446 -709 -670 -416 -521 -673 -1147 -748 -1820 -17 -155 -17
-575 0 -730 63 -569 254 -1098 567 -1570 277 -418 670 -796 1095 -1054 444
-269 917 -429 1455 -493 145 -17 576 -17 730 0 469 52 931 197 1327 418 520
288 983 732 1291 1234 273 446 434 919 499 1465 16 139 16 595 0 730 -85 699
-330 1296 -748 1820 -117 147 -432 459 -574 569 -523 404 -1101 642 -1750 722
-117 15 -553 27 -630 18z m-312 -1589 c-2 0 -46 -18 -98 -38 -428 -166 -792
-532 -957 -961 -15 -39 -28 -73 -29 -74 -1 -2 -81 22 -178 53 l-175 56 20 57
c36 99 146 320 205 410 87 133 138 197 264 326 216 222 472 390 759 496 l76
28 58 -176 c31 -96 56 -176 55 -177z m1385 265 c336 -149 658 -426 869 -750
109 -166 244 -459 222 -479 -11 -9 -335 -114 -339 -109 -2 2 -17 38 -34 81
-171 430 -526 787 -948 952 -54 21 -100 40 -102 41 -2 2 22 82 53 178 l56 175
68 -25 c37 -14 106 -43 155 -64z m-621 -626 c445 -84 826 -416 968 -842 63
-191 63 -187 67 -784 l4 -547 150 -108 149 -108 0 -372 0 -373 -1575 0 -1575
0 0 374 0 374 150 108 150 109 0 515 c0 558 4 617 56 782 135 431 498 766 937
863 166 37 355 40 519 9z m-573 -3293 c169 -28 344 -35 496 -21 116 10 259 32
308 46 15 5 17 -2 17 -44 0 -138 -55 -267 -153 -359 -98 -91 -202 -133 -332
-133 -270 0 -485 212 -485 478 0 55 2 63 16 58 10 -4 69 -15 133 -25z"/>
</g>
</svg>
