<?xml version="1.0" encoding="utf-8"?>
<!-- Generator: Adobe Illustrator 26.4.1, SVG Export Plug-In . SVG Version: 6.00 Build 0)  -->
<svg version="1.1" id="Capa_1" xmlns="http://www.w3.org/2000/svg" xmlns:xlink="http://www.w3.org/1999/xlink" x="0px" y="0px"
	 viewBox="0 0 24 24" style="enable-background:new 0 0 24 24;" xml:space="preserve">
<style type="text/css">
	.st0{opacity:0.5;enable-background:new    ;}
</style>
<g>
	<path class="st0" d="M20.8,22H3.2C2.5,22,2,21.4,2,20.7V5.1c0-0.5,0.3-1,0.8-1.2l4.4-1.9C7.4,2,7.5,2,7.7,2h8.6
		c0.2,0,0.3,0,0.5,0.1L21.2,4C21.7,4.2,22,4.6,22,5.1v15.6C22,21.4,21.5,22,20.8,22z"/>
	<g>
		<path d="M13.7,14l-0.2-0.2l0-0.3c0-0.2,0-0.4,0-0.6c0-0.6,0-1.4-0.2-1.7l0,0l0,0c-0.2-0.4-0.7-0.6-1.1-0.6c-0.3,0-0.5,0.1-0.8,0.2
			c-0.2,0.1-0.4,0.3-0.5,0.6l0,0l0,0c0,0-0.1,0.2-0.1,0.6c0,0.3,0,0.6,0,0.9c0,0.2,0,0.5,0,0.6l0,0.3L10.3,14c0,0-0.1,0.1-0.2,0.2
			v0.3h3.9v-0.3c0,0-0.1,0-0.1-0.1L13.7,14z"/>
		<path d="M21.1,4.3H2.9C2.4,4.3,2,4.7,2,5.2v1.1h4.9c0.3,0,0.6,0.3,0.6,0.6c0,0.3-0.3,0.6-0.6,0.6H2v1.1h2.6c0.3,0,0.6,0.3,0.6,0.6
			c0,0.3-0.3,0.6-0.6,0.6H2v11C2,21.4,2.5,22,3.2,22h17.5c0.7,0,1.3-0.6,1.3-1.3V5.2C22,4.7,21.6,4.3,21.1,4.3z M8.8,10.9
			c0.3-1,1.2-1.8,2.2-2.2l0.2,0.6c-0.8,0.3-1.5,0.9-1.8,1.8L8.8,10.9z M12,16.1c-0.4,0-0.9-0.3-0.8-0.9c0.3,0.1,0.5,0.1,0.8,0.1
			c0.3,0,0.5,0,0.8-0.1c0,0,0,0.1,0,0.1C12.8,15.8,12.4,16.1,12,16.1z M14.6,15H9.4v-1.2c0.1-0.1,0.4-0.3,0.5-0.4
			c0-0.6-0.1-1.9,0.2-2.4c0.3-0.7,1.1-1.1,1.9-1.1c0.6,0,1.3,0.3,1.7,0.8c0.6,0.6,0.4,1.9,0.4,2.7c0.1,0.1,0.4,0.3,0.5,0.4V15z
			 M14.6,11.1c-0.3-0.8-0.9-1.5-1.8-1.8L13,8.7c1,0.3,1.8,1.1,2.2,2.2L14.6,11.1z M21.1,20.6c0,0.3-0.2,0.5-0.5,0.5h-4.5
			c-0.3,0-0.5-0.2-0.5-0.5V18c0-0.3,0.2-0.5,0.5-0.5h4.5c0.3,0,0.5,0.2,0.5,0.5V20.6z"/>
	</g>
</g>
</svg>
