<?xml version="1.0" encoding="UTF-8"?>
<svg id="a" data-name="Capa 1" width="24" height="24" fill="currentColor" xmlns="http://www.w3.org/2000/svg" viewBox="0 0 24 24">

  <path fill="currentColor" d="M16.83,16.25l-4.28,4.27c-.3,.31-.8,.31-1.1,0l-4.27-4.27c-.31-.31-.31-.8,0-1.1,.3-.31,.79-.31,1.1,0l2.91,2.91s.01,.02,.03,.03c0,0,.01,.02,.02,.03,.41,.41,1.09,.42,1.5,0,.02-.02,.03-.03,.04-.05v.02l2.95-2.94c.31-.31,.8-.31,1.1,0,.31,.3,.31,.79,0,1.1Z"/>
  <path opacity="0.5" fill="currentColor" d="M12.78,4.03v14.04s-.02,.03-.04,.05c-.41,.42-1.09,.41-1.5,0-.01-.01-.02-.02-.02-.03V4.03c0-.43,.35-.78,.78-.78s.78,.35,.78,.78Z"/>
</svg>