<?xml version="1.0" encoding="UTF-8"?>
<svg id="a" data-name="Capa 1" width="24" height="24" fill="currentColor" xmlns="http://www.w3.org/2000/svg" viewBox="0 0 24 24">
  <path fill="currentColor" d="M11.6,5.58h6.05c.43,0,.78,.36,.78,.79v6.04c0,.44-.34,.78-.78,.78-.43,0-.78-.34-.78-.78v-4.12s0-.02,0-.04c0,0,0-.02,0-.04,0-.58-.47-1.07-1.06-1.06-.03,0-.04,0-.06,0h.01s-4.17-.02-4.17-.02c-.44,0-.78-.35-.78-.78,0-.43,.34-.78,.78-.78Z"/>
  <path d="M5.82,17.09L15.75,7.16s.04,0,.06,0c.59,0,1.06,.48,1.06,1.06,0,.01,0,.03,0,.04L6.92,18.19c-.3,.3-.8,.3-1.1,0s-.3-.8,0-1.1Z" fill="currentColor" opacity="0.5"/>
</svg>