<?xml version="1.0" encoding="UTF-8"?>
<svg id="a" data-name="Capa 1" xmlns="http://www.w3.org/2000/svg" width="24" height="24" fill="currentColor"  viewBox="0 0 24 24">
  <path fill="currentColor" d="M18.42,11.59v6.05c0,.43-.36,.78-.79,.78h-6.04c-.44,0-.78-.34-.78-.78,0-.43,.34-.78,.78-.78h4.12s.02,0,.04,0c0,0,.02,0,.04,0,.58,0,1.07-.47,1.06-1.06,0-.03,0-.04,0-.06h.01s.01-4.15,.01-4.15c0-.44,.35-.78,.78-.78,.43,0,.78,.34,.78,.78Z"/>
  <path fill="currentColor" d="M6.92,5.82l9.93,9.93s0,.04,0,.06c0,.59-.48,1.06-1.06,1.06-.01,0-.03,0-.04,0L5.81,6.92c-.3-.3-.3-.8,0-1.1s.8-.3,1.1,0Z"  opacity="0.5"/>
</svg>