<?xml version="1.0" encoding="UTF-8"?>
<svg id="a" data-name="Capa 1" xmlns="http://www.w3.org/2000/svg" width="24" height="24" fill="currentColor" viewBox="0 0 24 24">
  <path fill="currentColor" d="M7.76,16.83L3.49,12.55c-.31-.3-.31-.8,0-1.1L7.76,7.17c.31-.31,.8-.31,1.1,0,.31,.3,.31,.79,0,1.1l-2.91,2.91s-.02,.01-.03,.03c0,0-.02,.01-.03,.02-.41,.41-.42,1.09,0,1.5,.02,.02,.03,.03,.05,.04h-.02l2.94,2.95c.31,.31,.31,.8,0,1.1-.3,.31-.79,.31-1.1,0Z"/>
  <path d="M19.98,12.78H5.94s-.03-.02-.05-.04c-.42-.41-.41-1.09,0-1.5,.01-.01,.02-.02,.03-.02h14.06c.43,0,.78,.35,.78,.78s-.35,.78-.78,.78Z" fill="currentColor" opacity="0.5"/>
</svg>