<?xml version="1.0" encoding="UTF-8"?>
<svg id="a" data-name="Capa 1" xmlns="http://www.w3.org/2000/svg" width="24" height="24" viewBox="0 0 24 24" fill="currentColor">
    <g>
      <path fill="currentColor" d="M14.35,20.55c0,.65-.26,1.24-.69,1.66-.43,.43-1.01,.69-1.66,.69s-1.24-.26-1.66-.69c-.43-.43-.69-1.01-.69-1.66,0-.09,0-.19,.02-.28,.75,.18,1.53,.28,2.34,.28s1.59-.1,2.34-.28c.01,.09,.02,.18,.02,.28h0Z" opacity="0.5"/>
      <path fill="currentColor" d="M9.49,2.8c-.82,.26-1.58,.65-2.27,1.15-.2,.15-.4,.3-.59,.47-.28,.25-.55,.51-.79,.79-.15,.17-.29,.35-.42,.53-.41,.55-.74,1.16-1,1.8-.06,.15-.12,.31-.17,.46l-1.71-.56s.02-.06,.03-.09c.31-.9,.74-1.75,1.28-2.51l.12-.16c.62-.84,1.36-1.58,2.21-2.19l.25-.17c.68-.46,1.42-.84,2.2-1.12l.32-.11,.56,1.71h0Z" opacity="0.5"/>
      <path fill="currentColor" d="M21.47,7.45l-1.71,.56c-.05-.16-.11-.31-.17-.46-.26-.64-.6-1.25-1-1.8-.13-.18-.28-.36-.42-.53-.25-.28-.51-.55-.8-.8-.19-.17-.39-.32-.59-.47-.68-.49-1.45-.88-2.27-1.15l.56-1.71,.32,.11c.78,.28,1.52,.66,2.2,1.12l.25,.17c.43,.31,.84,.66,1.21,1.03,.36,.36,.69,.74,.99,1.15,.04,.05,.08,.11,.12,.17,.54,.76,.97,1.61,1.28,2.51,.01,.03,.02,.06,.03,.09h0Z" opacity="0.5"/>
      <path fill="currentColor" d="M19.59,16.04v3.61H4.41v-3.61l.95-.69,.47-.34v-4.42s0-.04,0-.05c0-.66,.12-1.3,.32-1.9,.01-.04,.03-.08,.04-.11s.03-.08,.04-.11c.03-.07,.05-.13,.08-.2,0-.02,.02-.04,.03-.06,0-.02,.02-.05,.03-.07,.01-.03,.03-.06,.04-.08,.02-.03,.03-.07,.05-.1,.02-.03,.03-.07,.05-.1h0s.04-.08,.06-.11c.02-.04,.04-.07,.06-.11h0s.04-.07,.06-.1c0,0,0,0,0-.01,.01-.02,.03-.05,.04-.07,.09-.16,.2-.31,.31-.45,.38-.52,.84-.97,1.36-1.35,.52-.37,1.09-.66,1.71-.86,.6-.19,1.23-.3,1.89-.3s1.29,.1,1.89,.3c.62,.2,1.19,.49,1.71,.86,.27,.2,.53,.41,.76,.65,.22,.22,.42,.45,.6,.7,.38,.51,.68,1.09,.89,1.7,.2,.6,.31,1.24,.32,1.9,0,.02,0,.04,0,.05v4.42l.47,.34,.95,.69h0s0,0,0,0Z" opacity="0.5"/>
      <rect x="9.14" y="8.01" width="2.05" height="6.12"/>
      <rect x="12.81" y="8.01" width="2.05" height="6.12"/>
  </g>
</svg>