<?xml version="1.0" encoding="UTF-8"?>
<svg id="a" data-name="Capa 1" xmlns="http://www.w3.org/2000/svg" viewBox="0 0 24 24">
  <path d="M3.46,20.54c1.47,1.46,3.82,1.46,8.54,1.46s7.07,0,8.53-1.47c1.47-1.46,1.47-3.82,1.47-8.53s0-7.07-1.47-8.54c-1.46-1.46-3.82-1.46-8.53-1.46s-7.07,0-8.54,1.46c-1.46,1.47-1.46,3.82-1.46,8.54s0,7.07,1.46,8.53" style="isolation: isolate; opacity: .5;"/>
  <g>
    <path d="M13.31,16.76c.01,1.8-2.84,1.63-2.61-.16,.83,.21,1.78,.21,2.61,0,0,.05,.01,.1,.01,.16h-.01Z" style="isolation: isolate;"/>
    <path d="M10.6,6.88c-1.36,.43-2.47,1.54-2.92,2.89l-.95-.31c.54-1.67,1.9-3,3.57-3.54l.31,.95h-.01Z" style="isolation: isolate;"/>
    <path d="M17.27,9.47l-.95,.31c-.45-1.36-1.55-2.46-2.92-2.9l.31-.95c1.67,.53,3.02,1.87,3.56,3.54h0Z" style="isolation: isolate;"/>
    <path d="M16.22,14.25v2.01H7.77v-2.01c.17-.13,.62-.45,.79-.57,.05-1.05-.21-3.09,.38-4.01h0s.05-.09,.07-.12h0s.02-.04,.03-.06c3.32-4.17,7.34-.17,6.39,4.2,.17,.12,.62,.45,.79,.57h0Z"/>
  </g>
</svg>