<?xml version="1.0" encoding="UTF-8"?>
<svg id="a" xmlns="http://www.w3.org/2000/svg" viewBox="0 0 24 24">
  <g style="opacity: .5;">
    <path d="M11.78,19.13h0c-.37,0-.71-.17-.93-.46l-1.55-2.03c-.41-.52-.3-1.27,.22-1.66,.52-.41,1.27-.3,1.66,.22l.63,.81L21.68,4.93c.41-.52,1.13-.61,1.66-.22,.52,.41,.61,1.15,.22,1.66l-10.83,12.31c-.22,.29-.57,.46-.93,.46h-.02Z"/>
  </g>
  <path d="M6.05,19.13h0c-.37,0-.71-.17-.93-.46L.45,12.62c-.41-.52-.3-1.27,.22-1.66,.52-.41,1.27-.3,1.66,.22l3.74,4.83L15.97,4.93c.41-.52,1.13-.61,1.66-.22,.52,.41,.61,1.15,.22,1.66L7.01,18.68c-.22,.29-.57,.46-.93,.46h-.03Z"/>
</svg>