<?xml version="1.0" encoding="UTF-8"?>
<svg id="a" data-name="Capa 1" xmlns="http://www.w3.org/2000/svg" viewBox="0 0 24 24">
  <path d="M20.76,22H3.24c-.7,0-1.27-.57-1.27-1.27V5.12c0-.51,.31-.97,.78-1.17l4.45-1.86c.15-.06,.32-.1,.49-.1h8.62c.17,0,.33,.03,.49,.1l4.45,1.86c.47,.2,.78,.66,.78,1.17v15.61c0,.7-.57,1.27-1.27,1.27Z" style="isolation: isolate; opacity: .5;"/>
  <g>
    <path d="M13.72,13.95l-.25-.18v-.31c-.02-.19-.01-.4-.01-.63,.01-.59,.03-1.4-.25-1.71l-.03-.03-.02-.03c-.24-.36-.66-.56-1.14-.56-.28,0-.55,.07-.78,.2-.23,.13-.41,.33-.52,.56l-.02,.03-.02,.03s-.09,.19-.12,.56c-.02,.3-.02,.64,0,.94,0,.23,0,.46,0,.64v.3s-.26,.18-.26,.18c-.05,.03-.13,.1-.22,.16v.27h3.87v-.27s-.06-.04-.08-.06l-.14-.1Z"/>
    <path d="M21.15,4.28H2.85c-.48,0-.88,.39-.88,.88v1.12H6.86c.32,0,.58,.26,.58,.58s-.26,.58-.58,.58H1.98v1.12h2.6c.32,0,.58,.26,.58,.58s-.26,.58-.58,.58H1.98v11.02c0,.7,.56,1.26,1.26,1.26H20.76c.7,0,1.26-.56,1.26-1.26V5.16c0-.48-.39-.88-.88-.88Zm-12.35,6.6c.33-1.01,1.15-1.83,2.17-2.15l.19,.58c-.83,.27-1.51,.93-1.78,1.76l-.58-.19Zm3.21,5.22c-.43,0-.86-.3-.8-.87,.25,.06,.52,.09,.79,.09s.54-.03,.79-.09c0,.03,0,.06,0,.09,0,.53-.4,.78-.79,.78Zm2.56-1.09h-5.14v-1.22c.11-.08,.38-.28,.48-.35,.03-.64-.12-1.88,.23-2.44,.35-.74,1.11-1.13,1.87-1.13,.64,0,1.28,.27,1.66,.84,.57,.64,.38,1.95,.41,2.74,.1,.07,.38,.27,.48,.35v1.22Zm.06-3.94c-.27-.83-.95-1.5-1.78-1.76l.19-.58c1.01,.32,1.84,1.14,2.17,2.15l-.58,.19Zm6.5,9.52c0,.28-.23,.51-.51,.51h-4.47c-.28,0-.51-.23-.51-.51v-2.64c0-.28,.23-.51,.51-.51h4.47c.28,0,.51,.23,.51,.51v2.64Z"/>
  </g>
</svg>