<?xml version="1.0" encoding="UTF-8"?>
<svg id="a" xmlns="http://www.w3.org/2000/svg" viewBox="0 0 24 24">
  <path d="M18.57,18.92c-.44,.44-1.15,.44-1.59,0L5.43,7.37c-.43-.43-.43-1.14,0-1.58,.22-.22,.51-.33,.79-.33s.58,.11,.8,.33l4.8,4.8,6.75,6.75c.43,.43,.43,1.14,0,1.58Z"/>
  <path d="M10.24,12.18l1.59,1.59-4.81,4.8c-.44,.43-1.15,.43-1.59,0-.43-.44-.43-1.15,0-1.59l4.81-4.8Z" style="opacity: .5;"/>
  <path d="M18.57,7.02l-5.16,5.16-1.59-1.59,5.16-5.16c.22-.21,.51-.32,.8-.32s.57,.11,.79,.32c.43,.44,.43,1.15,0,1.59Z" style="opacity: .5;"/>
</svg>