<?xml version="1.0" encoding="UTF-8"?>
<svg id="a" xmlns="http://www.w3.org/2000/svg" viewBox="0 0 24 24">
  <path d="M21.77,22.59c-6.51,.89-13.02,.89-19.53,0-.63-.09-1.31-1.16-1.48-2.37C.04,14.74,.04,9.26,.76,3.78c.16-1.21,.85-2.28,1.48-2.37,6.51-.89,13.02-.89,19.53,0,.63,.09,1.31,1.16,1.48,2.37,.72,5.48,.72,10.96,0,16.44-.16,1.21-.85,2.28-1.48,2.37Z" style="opacity: .5;"/>
  <g>
    <polygon points="10.11 9.33 8.22 9.33 7.36 10.67 6.47 9.33 4.49 9.33 6.31 11.97 4.43 14.67 6.43 14.67 7.31 13.24 8.21 14.67 10.23 14.67 8.3 11.91 10.11 9.33"/>
    <polygon points="12.2 9.33 10.44 9.33 10.44 14.67 14.56 14.67 14.56 13.27 12.2 13.27 12.2 9.33"/>
    <path d="M19.26,12.29c-.1-.19-.24-.34-.41-.46-.17-.12-.36-.21-.56-.28-.2-.07-.41-.13-.61-.17-.21-.04-.4-.08-.57-.11-.17-.04-.31-.08-.41-.13s-.16-.13-.16-.22c0-.06,.02-.12,.06-.17,.04-.05,.11-.09,.21-.12,.1-.03,.23-.05,.4-.05,.23,0,.46,.03,.7,.1,.24,.07,.49,.17,.75,.3l.53-1.3c-.27-.16-.58-.27-.92-.35s-.69-.11-1.04-.11c-.54,0-.98,.08-1.34,.24s-.63,.38-.81,.65c-.18,.27-.27,.57-.27,.9,0,.28,.05,.52,.16,.71,.1,.19,.24,.34,.41,.46,.17,.12,.36,.21,.57,.28,.21,.07,.41,.13,.62,.17,.2,.04,.39,.08,.56,.12,.17,.04,.31,.08,.41,.14s.16,.13,.16,.23c0,.06-.02,.11-.07,.16s-.12,.08-.21,.1c-.1,.02-.23,.03-.4,.03-.29,0-.58-.04-.89-.13s-.58-.21-.83-.35l-.57,1.31c.26,.16,.6,.29,1.01,.4,.41,.1,.83,.15,1.27,.15,.54,0,.99-.08,1.35-.25,.36-.17,.63-.38,.81-.65,.18-.27,.27-.57,.27-.89,0-.28-.05-.51-.16-.7Z"/>
  </g>
</svg>