<?xml version="1.0" encoding="UTF-8"?>
<svg id="a" xmlns="http://www.w3.org/2000/svg" viewBox="0 0 500 327.31">
  <path d="M375.68,154.28c-2.06-.03-4.11-.06-6.17-.1-.85-.01-1.7-.03-2.55-.04-.96-.01-1.92-.02-2.88-.03-.82,0-1.63,0-2.45,0-.62,0-1.23,0-1.85,0-.75,0-1.31-.07-1.72-.28-.69-.35-.94-1.07-.94-2.35,.07-14.29,.04-28.57,.04-42.86v-2.81c-.25-.06-.5-.13-.75-.19-.23,.49-.46,.98-.69,1.48-.14,.31-.29,.63-.4,.95-5.35,14.52-10.72,29.03-15.97,43.59-.34,.94-.73,1.59-1.29,1.98-.54,.38-1.23,.53-2.2,.49-3.75-.16-7.52-.22-11.26,.02-.85,.06-1.48-.07-1.97-.35-.74-.42-1.15-1.18-1.52-2.15-.03-.09-.07-.17-.1-.26-1.09-3-2.19-6-3.29-9-4.16-11.38-8.33-22.76-12.5-34.14-.04-.12-.1-.24-.14-.36-.21-.52-.48-1.04-.92-1.55-.15-.18-.32-.35-.51-.53-.01,.16-.03,.32-.04,.48-.06,.71-.14,1.43-.14,2.14,0,3.29-.01,6.57-.02,9.86-.01,11-.03,22,.06,33,.02,2.33-.72,2.92-2.93,2.84-4.32-.16-8.65-.11-12.98-.01-1.54,.04-2.25-.33-2.4-1.68-.02-.19-.03-.41-.03-.65,.02-6.98,.02-13.97,.03-20.95,.01-14.73,.01-29.46-.02-44.19,0-1.49,.41-2.11,1.67-2.24,.18-.02,.37-.03,.58-.02,8.32,.07,16.65,.08,24.98-.01,.59,0,1.04,.09,1.42,.25,.35,.15,.63,.38,.85,.69,.25,.34,.46,.76,.65,1.29,1.54,4.38,3.11,8.75,4.66,13.12,2.89,8.11,5.8,16.22,8.7,24.32,.09,.25,.18,.51,.27,.76,.11,.3,.22,.6,.35,.91,.28,.71,.62,1.49,1.05,2.55,.39-.85,.72-1.48,.98-2.05,.15-.32,.28-.62,.39-.93,2.21-6.12,4.43-12.24,6.63-18.37,2.38-6.6,4.74-13.2,7.07-19.81,.31-.88,.67-1.52,1.15-1.96,.61-.56,1.43-.81,2.66-.79,3.24,.06,6.47,.08,9.71,.08,4.68,0,9.36-.02,14.05-.04,.38,0,.76-.02,1.14-.06,.28-.02,.57-.05,.85-.08,.06-.01,.12-.01,.18-.02,.16,0,.33-.03,.49-.04v-10.29c-.16-.01-.33-.02-.49-.03-.81-.05-1.62-.13-2.43-.13-5.63-.01-11.26,.03-16.89,.02h-.02c-4.65,0-9.3-.02-13.95-.1-.17,0-.34,0-.49,0-2.37,.08-3.4,1.04-4.16,3.37-.12,.36-.24,.72-.36,1.08-1.58,4.77-3.33,9.52-5.12,14.46-.04,.1-.08,.21-.11,.31-.21,.57-.42,1.14-.62,1.72-.22,.6-.44,1.21-.66,1.82-.91-2.57-1.81-5.07-2.7-7.54-1.45-4.07-2.86-8.04-4.23-12.02-.11-.31-.21-.62-.32-.93-.5-1.45-1.22-2.07-2.54-2.21h-.01c-.19-.02-.4-.03-.61-.03h-.04c-14.45,.06-28.9,.06-43.35,.01-1.9-.01-2.57,.57-2.55,2.52,.09,8.08,.04,16.17,.04,24.25v2.22c-.23-.48-.46-.96-.69-1.44-.18-.37-.35-.73-.52-1.1-.17-.35-.33-.69-.49-1.04-.16-.33-.31-.65-.46-.98-3.13-6.57-6.09-13.16-8.99-19.74,0-.01-.01-.01-.01-.02-.36-.83-.73-1.66-1.09-2.49-.69-1.58-1.55-2.2-3.29-2.19h-.38c-4.37,.02-8.74,.04-13.12,.05-6.93,.01-13.86-.01-20.79-.05-1.76-.01-2.61,.65-3.29,2.19-4.89,11.1-9.79,22.2-14.69,33.3h0c-5.9,13.39-11.81,26.76-17.71,40.13-1.87,4.24-3.74,8.47-5.61,12.71-.34,.77-.56,1.6-.96,2.73h28.49c3.47,0,3.48,0,3.48,3.47v73.48c0,3.4,.02,3.4,3.34,3.4,30.94,0,61.88-.05,92.82,.08,3.01,.02,5.07-.82,6.98-2.92,.11-.12,.22-.24,.33-.37,2.15-2.54,4.39-5.01,6.66-7.49,.01-.02,.02-.03,.03-.04,1.89-2.06,3.8-4.12,5.72-6.24,3.63,4.01,7.31,7.71,10.57,11.75,.16,.19,.32,.38,.47,.58,2.36,2.98,4.91,4.73,8.47,4.82h.01c.6,.02,1.22,0,1.88-.09,2.94-.36,5.96-.13,8.97-.09,.43,.01,.87,.01,1.3,.01,4.57-.05,9.13-.12,13.69-.19,.16-.01,.33-.01,.49-.01v-25.48c-.1-.1-.19-.21-.29-.31-1.8-1.91-3.61-3.82-5.42-5.73-4.31-4.56-8.66-9.14-13.12-13.85,.12-.13,.24-.26,.37-.38,6.1-6.41,12.13-12.75,18.15-19.09,.1-.11,.21-.22,.31-.33v-25.48Zm-151.7-12.3c-1.34,3.5-2.8,6.96-4.33,10.38-.31,.69-1.14,1.63-1.75,1.64-6.26,.12-12.53,.08-19.2,.08,2.07-4.71,3.98-9.09,5.91-13.46,7.92-17.97,15.87-35.94,23.76-53.93,.71-1.62,1.56-2.35,3.44-2.31,6.45,.12,12.9,.09,19.35,.01,1.68-.02,2.61,.43,3.33,2.07,9.56,21.8,19.21,43.56,28.82,65.33,.28,.64,.44,1.34,.75,2.28-6.69,0-13.11,.05-19.54-.07-.61-.02-1.44-.97-1.76-1.67-1.51-3.35-2.93-6.73-4.26-10.15-.61-1.56-1.45-2.3-3.24-2.28-9.39,.08-18.78,.06-28.16,.01-1.62-.01-2.53,.52-3.12,2.07Zm60.45,35.68c.03,.65-.01,1.17-.14,1.59-.08,.28-.19,.52-.37,.71-.33,.35-.84,.55-1.58,.61-.23,.02-.48,.03-.76,.03-11.59-.12-23.18,0-34.78-.1-1.15,0-1.98,.14-2.49,.59-.51,.45-.7,1.21-.6,2.41,.14,1.55,.14,3.12,.06,4.69-.02,.32-.03,.63-.05,.94-.16,2.02,.45,2.89,2.21,3.07,.25,.02,.52,.03,.82,.03,4.51-.04,9.02-.05,13.52-.05,6.76,0,13.52,.01,20.27-.05,.28,0,.54,0,.78,.03,1.33,.11,1.94,.64,2.08,1.85,.03,.3,.05,.63,.03,1.02-.18,3.17-.15,6.37,0,9.55,0,.09,0,.17,0,.25,0,.4-.02,.75-.1,1.03-.02,.06-.04,.11-.06,.17-.04,.1-.07,.21-.11,.3-.22,.39-.57,.63-1.06,.77-.02,0-.04,.02-.06,.02,0,0-.01,0-.02,0-.35,.09-.76,.12-1.26,.12-11.02-.07-22.04-.04-33.07-.03-3.09,0-3.75,.02-3.9,1.88-.04,.52-.04,1.17-.04,2.01,0,1.47,0,2.94,0,4.41,.01,3.45,.04,3.49,3.61,3.49,5.55,0,11.1,0,16.65,0,4.9,0,9.81,0,14.71,0q5.67,0,5.67,5.7c0,2.53-.06,5.06,.02,7.59,.03,1.09-.2,1.73-.94,2.01-.29,.11-.66,.17-1.13,.17-5.67-.02-11.34-.02-17.02-.02-12.62-.01-25.23-.01-37.85,.03-1.31,0-1.79-.45-1.96-1.2-.08-.35-.1-.77-.1-1.25,.02-5.1,.02-10.19,.02-15.28,0-1.32,0-2.64,0-3.96,0-4.44,0-8.88,0-13.33,0-5.03,.01-10.06,.01-15.08,0-5.59,0-11.18-.05-16.76,0-.16,0-.31,.01-.45,.03-.79,.15-1.37,.49-1.75,.4-.46,1.07-.66,2.2-.65,17.88,.08,35.76,.08,53.64,0,.84,0,1.44,.1,1.86,.35,.21,.12,.37,.29,.49,.49,.29,.46,.39,1.1,.35,2.01-.03,.66-.05,1.33-.07,2-.04,1.58-.05,3.16-.03,4.73,.02,1.1,.04,2.21,.1,3.31Zm87.5-9.63c-5.19,5.45-10.31,10.83-15.41,16.18-4.85,5.09-9.69,10.18-14.57,15.3,10.55,11.2,20.96,22.25,31.56,33.5,.39,.41,.77,.82,1.16,1.23,0,0,0,0,0,0,0,0,0,0,0,0-.84,.09-1.42,.2-2,.2-6.61,.01-13.22,.1-19.83-.07-.55-.01-1.16-.17-1.74-.41-.75-.31-1.47-.77-1.96-1.29-.93-.99-1.85-2.01-2.77-3.01-4.04-4.36-8.03-8.75-12.01-13.16-.85-.94-1.7-1.88-2.55-2.81-.13-.14-.25-.29-.37-.45-.38-.5-.74-1.09-1.23-1.79-.32,.34-.61,.66-.92,1-2.38,2.58-4.5,4.87-6.58,7.14-.12,.13-.24,.26-.36,.39-.34,.37-.67,.74-1.01,1.11-3.62,3.97-7.21,7.97-10.87,11.91-.32,.34-.73,.69-1.16,.96-.4,.25-.83,.43-1.22,.43-1.97,.03-3.93,.05-5.91,.06-5.32,.03-10.72,.01-16.44,.01,0,0,0,0,0,0h0c.3-.33,.56-.62,.8-.9,.23-.26,.44-.49,.64-.71,.26-.29,.51-.57,.76-.83,9.4-9.98,18.81-19.95,28.22-29.92,.53-.56,.93-.98,1.21-1.34,.89-1.15,.5-1.59-1.25-3.45-9.52-10.1-19.05-20.19-28.57-30.28-.52-.56-1.01-1.16-1.92-2.21h5.39c4.61,0,9.23,.03,13.84-.01,.86,0,1.71,0,2.57-.02,1.72-.03,2.88,.57,4,1.83,5.36,6.04,10.81,12.01,16.23,18.01,.81,.9,1.59,1.84,2.58,2.99,.28-.3,.55-.58,.81-.85,1.15-1.21,2.15-2.26,3.12-3.32,5.13-5.59,10.19-11.25,15.43-16.74,.17-.18,.37-.35,.58-.51,.42-.32,.91-.61,1.42-.82,.64-.27,1.31-.45,1.92-.46,3.14-.08,6.29-.1,9.51-.11,3.86,0,7.8,.02,11.97,.02-1.03,1.08-2.05,2.15-3.07,3.22Z" style="fill: #fff;"/>
  <path d="M346.6,85.15c-.48,.44-.84,1.08-1.15,1.96-2.33,6.61-4.7,13.22-7.07,19.81-2.21,6.12-4.42,12.25-6.63,18.37-.11,.3-.25,.61-.39,.93-.27,.57-.59,1.2-.99,2.05-.43-1.07-.77-1.84-1.05-2.55-.12-.31-.24-.61-.35-.91,0,0,0,0,0,0-.09-.25-.18-.5-.27-.76-2.91-8.1-5.81-16.21-8.7-24.32-1.56-4.37-3.12-8.74-4.67-13.12-.19-.52-.39-.95-.64-1.29-.23-.3-.51-.53-.85-.69-.38-.17-.83-.25-1.42-.25-8.33,.09-16.65,.08-24.98,0-.21,0-.41,0-.58,.02-1.26,.12-1.67,.75-1.67,2.24,.03,14.73,.03,29.46,.02,44.19,0,6.99,0,13.97-.03,20.96,0,.23,0,.45,.03,.64,.15,1.35,.86,1.72,2.4,1.68,4.32-.1,8.66-.14,12.98,.01,2.21,.08,2.95-.51,2.93-2.84-.08-11-.07-22-.06-33,0-3.28,0-6.57,.01-9.85,0-.71,.08-1.43,.14-2.14,.01-.16,.03-.32,.04-.48,0,0,0,0,0,0,.2,.18,.36,.36,.51,.53,.44,.52,.71,1.03,.92,1.55,.05,.12,.1,.24,.14,.36,4.17,11.38,8.34,22.76,12.5,34.14,1.1,3,2.2,6,3.29,9,.03,.09,.07,.17,.1,.26,.37,.97,.78,1.73,1.52,2.15,.49,.27,1.11,.4,1.97,.35,3.74-.24,7.51-.18,11.26-.02,.97,.04,1.67-.11,2.2-.49,.56-.4,.95-1.04,1.29-1.98,5.25-14.56,10.62-29.07,15.97-43.59,.12-.32,.26-.64,.41-.95,.23-.49,.46-.98,.69-1.48,0,0,0,0,0,0,.25,.06,.5,.13,.75,.19,0,.94,0,1.87,0,2.81,0,14.29,.03,28.57-.04,42.86,0,1.28,.24,2,.93,2.36,.41,.21,.97,.29,1.72,.28,.62,0,1.23,0,1.85,0,.82,0,1.63,0,2.45,0,.96,0,1.92,.02,2.88,.03,.85,.01,1.7,.02,2.55,.04,2.06,.03,4.11,.07,6.17,.1h0V84.21c-.89,.07-1.78,.2-2.66,.2-4.68,0-9.36,.04-14.04,.03-3.24,0-6.47-.02-9.71-.08-1.23-.02-2.05,.23-2.66,.79Z" style="fill: #026fd0;"/>
  <path d="M284.43,167.62c.04-.91-.06-1.56-.35-2.01-.13-.2-.28-.37-.49-.49-.42-.25-1.02-.35-1.86-.35-17.88,.08-35.76,.08-53.64,0-1.12,0-1.8,.19-2.2,.65-.33,.39-.46,.97-.49,1.75,0,.15-.01,.29-.01,.45,.05,5.59,.06,11.18,.05,16.76,0,5.03-.01,10.05-.01,15.08,0,4.44,0,8.89,0,13.33,0,1.32,0,2.64,0,3.96,0,5.09,0,10.19-.02,15.28,0,.48,.02,.89,.1,1.24,.17,.75,.65,1.2,1.96,1.2,12.62-.04,25.23-.04,37.85-.03,5.67,0,11.34,0,17.01,.02,.47,0,.84-.06,1.14-.17,.74-.28,.97-.92,.94-2.01-.08-2.53-.02-5.06-.02-7.59q0-5.7-5.67-5.7c-4.9,0-9.81,0-14.71,0-5.55,0-11.1,0-16.64,0-3.57,0-3.6-.04-3.61-3.49,0-1.47,0-2.94,0-4.41,0-.84,0-1.49,.05-2.01,.15-1.86,.81-1.88,3.9-1.88,11.02,0,22.04-.04,33.07,.03,.49,0,.91-.03,1.26-.12,0,0,.01,0,.02,0,.02,0,.04-.02,.06-.02,.49-.14,.84-.38,1.06-.77,.05-.09,.08-.19,.11-.3,.02-.06,.05-.1,.06-.17,.07-.29,.1-.64,.1-1.03,0-.09,0-.16,0-.25-.14-3.18-.17-6.37,0-9.55,.02-.39,0-.72-.03-1.02-.14-1.22-.74-1.74-2.08-1.85-.24-.02-.49-.03-.78-.03-6.76,.07-13.52,.05-20.28,.05-4.51,0-9.02,0-13.52,.05-.3,0-.57,0-.82-.03-1.76-.17-2.37-1.04-2.21-3.07,.02-.31,.04-.63,.06-.94,.08-1.56,.08-3.13-.06-4.69-.11-1.2,.09-1.96,.6-2.41,.51-.45,1.34-.6,2.49-.59,11.59,.1,23.19-.02,34.78,.1,.28,0,.53,0,.76-.03,.74-.07,1.25-.26,1.58-.61,.17-.19,.28-.43,.37-.71,.12-.42,.17-.93,.14-1.59-.05-1.1-.08-2.2-.1-3.31-.02-1.58-.01-3.16,.03-4.73,.02-.67,.04-1.33,.07-2Z" style="fill: #026fd0;"/>
  <path d="M255.26,139.9c1.79-.02,2.63,.72,3.24,2.28,1.33,3.42,2.75,6.8,4.26,10.15,.32,.7,1.15,1.65,1.76,1.67,6.43,.12,12.85,.07,19.54,.07-.31-.94-.47-1.64-.75-2.28-9.61-21.77-19.26-43.53-28.82-65.33-.72-1.64-1.65-2.09-3.33-2.07-6.45,.08-12.9,.11-19.35-.01-1.88-.04-2.73,.69-3.44,2.31-7.89,17.99-15.84,35.96-23.76,53.93-1.93,4.37-3.84,8.75-5.91,13.46,6.67,0,12.94,.04,19.2-.08,.61,0,1.44-.95,1.75-1.64,1.53-3.42,2.99-6.88,4.33-10.38,.59-1.55,1.5-2.08,3.12-2.07,9.38,.05,18.77,.07,28.16-.01Zm-15.24-36.31c.24-.59,.49-1.19,.74-1.78,0,0,0,0,0,0,0,0,0,0,0,0,.15-.02,.3-.03,.45-.05,.11-.01,.22-.02,.34-.04,3.15,7.56,6.29,15.12,9.6,23.07h0s0,0,0,0h-19.9c3.01-7.28,5.9-14.25,8.78-21.21Z" style="fill: #026fd0;"/>
  <path d="M363.03,164.79c-3.21,0-6.36,.03-9.51,.11-.61,.02-1.28,.19-1.92,.46-.51,.22-1,.5-1.42,.82-.21,.16-.41,.33-.58,.51-5.24,5.49-10.3,11.15-15.43,16.74-.97,1.06-1.98,2.11-3.12,3.32-.26,.28-.53,.56-.81,.86,0,0,0,0,0,0-.99-1.15-1.77-2.09-2.58-2.99-5.41-6-10.86-11.96-16.23-18.01-1.12-1.26-2.28-1.86-4-1.83-.86,.01-1.71,0-2.57,.02-4.61,.04-9.23,.02-13.84,.02h-5.39c.91,1.04,1.39,1.65,1.92,2.21,9.52,10.09,19.05,20.18,28.56,30.28,1.75,1.86,2.14,2.3,1.25,3.45-.28,.36-.68,.78-1.21,1.34-9.41,9.97-18.82,19.95-28.22,29.92-.25,.26-.5,.54-.76,.83-.2,.22-.41,.46-.64,.71-.24,.27-.5,.56-.8,.9h0c5.72,0,11.12,.02,16.44,0,1.98-.01,3.95-.03,5.91-.06,.39,0,.81-.18,1.22-.43,.43-.27,.84-.63,1.16-.96,3.66-3.93,7.25-7.93,10.87-11.9,.34-.37,.67-.74,1.01-1.11,.12-.13,.24-.26,.36-.39,2.07-2.27,4.19-4.56,6.58-7.14,.31-.33,.6-.65,.92-1,.5,.7,.85,1.29,1.23,1.79,.12,.16,.24,.31,.37,.45,.85,.94,1.7,1.88,2.55,2.82,3.98,4.41,7.98,8.8,12.01,13.16,.93,1,1.84,2.01,2.77,3.01,.49,.52,1.2,.98,1.96,1.3,.58,.24,1.19,.4,1.74,.41,6.61,.17,13.22,.08,19.83,.07,.58,0,1.16-.11,2-.2,0,0,0,0,0,0-.39-.41-.77-.82-1.15-1.23-10.61-11.26-21.01-22.31-31.56-33.5,0,0,0,0,0,0,4.88-5.12,9.72-10.2,14.57-15.3,5.1-5.35,10.22-10.73,15.41-16.18,1.02-1.07,2.04-2.14,3.07-3.22-4.16,0-8.11-.03-11.96-.02Z" style="fill: #026fd0;"/>
  <path d="M360.2,245.12c-4.92,.29-8.12,.63-10.85,.18h-.01c-3.56-.09-6.11-1.84-8.47-4.82-.15-.2-.31-.39-.47-.58-2.67-2.6-5.95-6.37-10.57-11.75-1.92,2.12-3.83,4.18-5.72,6.24-.01,.01-.02,.02-.03,.04-2.21,2.85-4.37,5.78-6.99,7.86-1.91,2.1-3.97,2.94-6.98,2.92-30.94-.13-61.88-.08-92.82-.08-3.32,0-3.34,0-3.34-3.4v-73.48c0-3.47,0-3.47-3.48-3.47h-28.49c.4-1.13,.62-1.96,.96-2.73,1.87-4.24,3.74-8.47,5.61-12.71,5.79-13.42,11.76-26.77,17.71-40.12h0c4.9-11.11,9.8-22.21,14.69-33.31,.68-1.54,1.53-2.2,3.29-2.19,6.93,.04,13.86,.06,20.79,.05,6.8-.36,10.53-.85,13.12-.05h.38c1.74-.01,2.6,.61,3.29,2.19,.36,.83,.73,1.66,1.09,2.49,0,.01,.01,.01,.01,.02,2,3.63,4.33,9.72,8.99,19.74,.15,.33,.3,.65,.46,.98,.16,.35,.32,.69,.49,1.04,.17,.37,.34,.73,.52,1.1,.23,.48,.46,.96,.69,1.44v-2.22c0-8.08,.05-16.17-.04-24.25-.02-1.95,.65-2.53,2.55-2.52,14.45,.05,28.9,.05,43.35-.01h.04c.21-.03,.41-.02,.61,.03h.01c1.32,.14,2.04,.76,2.54,2.21,.11,.31,.21,.62,.32,.93,1.59,3.07,2.98,7.84,4.23,12.02,.89,2.47,1.79,4.97,2.7,7.54,.22-.61,.44-1.22,.66-1.82,.2-.58,.41-1.15,.62-1.72,.03-.1,.07-.21,.11-.31,2.48-7.02,3.79-11.56,5.12-14.46,.12-.36,.24-.72,.36-1.08,.76-2.33,1.79-3.29,4.16-3.37,2.72-.73,6.91-.25,14.44,.09h.02c5.63,.01,11.26-.03,16.89-.02,.81,0,1.62,.08,2.43,.13v-27.95c0-5.98-4.32-10.96-10.01-11.99-.29-.06-.59-.1-.89-.13-.42-.05-.85-.07-1.29-.07H137c-.72,0-1.43,.06-2.12,.19-.02,0-.04,0-.06,.01-4.97,.9-8.89,4.8-9.8,9.75-.01,.02-.01,.03-.01,.05-.13,.71-.2,1.44-.2,2.19v225.99c0,.44,.02,.86,.07,1.29,.03,.3,.07,.6,.13,.9,1.03,5.69,6.01,10.01,11.99,10.01h226c6.73,0,12.19-5.46,12.19-12.2v-26.99c-4.56,.07-9.12,.14-13.69,.19-.43,0-.87,0-1.3-.01Z" style="fill: #026fd0;"/>
  <path d="M356.92,199.55c4.46,4.71,8.8,9.3,13.11,13.85,1.81,1.91,3.62,3.82,5.42,5.73,.1,.1,.2,.21,.29,.31v-39.69c-.1,.11-.21,.22-.31,.33-6.03,6.34-12.06,12.68-18.15,19.09-.12,.13-.24,.25-.36,.38Z" style="fill: #026fd0;"/>
  <path d="M251.21,124.8h0c-3.31-7.95-6.45-15.51-9.6-23.07-.11,.01-.22,.02-.34,.04l-.45,.05s0,0,0,0c-.24,.59-.49,1.19-.74,1.78-2.88,6.95-5.77,13.93-8.78,21.21h19.9Z" style="fill: #fff;"/>
</svg>