<?xml version="1.0" encoding="UTF-8"?>
<svg id="a" xmlns="http://www.w3.org/2000/svg" viewBox="0 0 500 327.31">
  <path d="M232.04,50.81c-62.2,0-112.62,50.43-112.62,112.65s50.4,112.59,112.62,112.62c62.2,0,112.62-50.4,112.62-112.62s-50.43-112.62-112.62-112.65Zm-25.56,179.24c-26.78-10.29-45.76-36.19-45.81-66.6,.08-30.41,19.06-56.31,45.81-66.62V230.05Zm51.11,.03V96.81c26.8,10.29,45.81,36.21,45.87,66.62-.05,30.44-19.06,56.34-45.87,66.62v.03Z" style="fill: #fffffe;"/>
  <path d="M263.67,40.63h-31.89c-68.08,0-124.1,50.74-124.1,124.1,0,67.13,56.02,122.27,124.1,121.95h31.89c67.26,0,128.66-54.85,128.66-121.95,0-73.38-61.4-124.13-128.66-124.1Zm-32.08,243.93c-65.59,0-118.77-53.18-118.77-118.8s53.18-118.8,118.77-118.8,118.8,53.18,118.8,118.8-53.18,118.8-118.8,118.8Z" style="fill: #0069aa;"/>
  <path d="M257.57,96.81V230.08c26.8-10.29,45.81-36.21,45.87-66.62-.05-30.41-19.06-56.36-45.87-66.62v-.03Z" style="fill: #0069aa;"/>
  <path d="M160.64,163.46c.08,30.41,19.06,56.31,45.81,66.6V96.83c-26.78,10.31-45.76,36.21-45.81,66.62Z" style="fill: #0069aa;"/>
  <path d="M231.59,47.02c-65.59,0-118.77,53.18-118.77,118.8s53.18,118.8,118.77,118.8,118.8-53.18,118.8-118.8-53.18-118.8-118.8-118.8Zm.45,229.06c-62.2,0-112.62-50.4-112.62-112.62s50.4-112.62,112.62-112.65c62.2,0,112.62,50.43,112.62,112.65s-50.43,112.59-112.62,112.62Z" style="fill: #0069aa;"/>
</svg>