<?xml version="1.0" encoding="UTF-8"?>
<svg id="a" xmlns="http://www.w3.org/2000/svg" viewBox="0 0 500 327.31">
  <path d="M195.54,269.5c-22.04,.02-44.08,.33-66.11-.05-15.13-.26-27.52-12.94-27.48-27.99,.14-52.44,.05-104.87,.06-157.31,0-11.86,11.07-24.28,22.83-25.89,3.42-.47,6.83-.6,10.27-.6,77.71,.01,155.41,0,233.12,0,14.7,0,25.76,8.55,29.37,22.75,.23,.89,.26,1.85,.27,2.79,.03,2.92,.01,5.85,.02,8.77,.05,24.28,.1,48.56,.16,72.84-1.04-.05-1.02,.92-1.31,1.47-5.98,11.28-14.13,20.82-23.5,29.39-19.46,17.79-42.33,30.09-66.28,40.46-28.01,12.13-57.14,20.91-86.84,27.87-8.17,1.91-16.52,3.03-24.57,5.48Zm40.4-105.95c-.02,12,9.27,21.37,21.08,21.27,11.94-.11,21.18-9.41,21.14-21.3-.04-11.87-9.47-21.21-21.32-21.1-11.78,.1-20.87,9.29-20.89,21.14Zm-112.92-.15c0,6.37,.01,12.74-.01,19.11,0,1.35-.04,2.43,1.9,2.35,4.79-.21,9.59,.21,14.37-.55,9.14-1.46,16.09-9.51,16.75-19.53,.71-10.87-4.25-18.44-13.89-21.31-5.32-1.58-10.77-.82-16.17-1.12-2.3-.13-3.07,.46-3,2.88,.18,6.05,.06,12.11,.06,18.16Zm232.04,4.86c.2-.08,.41-.15,.61-.23,.42,.54,.87,1.06,1.25,1.63,2.96,4.41,5.94,8.8,8.82,13.26,.88,1.36,1.82,2.06,3.52,1.95,2.34-.16,4.7-.04,7.51-.04-.89-1.34-1.48-2.29-2.13-3.19-3.05-4.23-6.08-8.46-9.19-12.65-.97-1.31-.99-1.82,.72-2.6,5.43-2.47,7.99-7.51,7.1-13.26-.91-5.88-4.36-9.29-10.47-10.38-3.94-.7-7.93-.07-11.88-.42-2.92-.26-3.9,.49-3.84,3.66,.22,11.28,.09,22.56,.09,33.84,0,5.06,0,4.93,5.18,5.05,2.28,.05,2.81-.73,2.74-2.85-.15-4.59-.05-9.18-.05-13.77Zm-35.38-4.65c0,6.26,0,12.53,0,18.79,0,1.28-.18,2.48,1.81,2.45,6.37-.09,12.74-.04,19.11-.03,.89,0,1.52-.06,1.76-1.21,.97-4.63,.04-5.89-4.58-5.89-.42,0-.84,.02-1.25,0-2.88-.18-6.76,1.26-8.4-.55-1.76-1.94-.29-5.78-.55-8.78-.16-1.83,.73-2.05,2.2-2.01,2.71,.07,5.45-.2,8.14,.08,2.99,.31,3.87-.59,3.8-3.67-.07-2.8-.71-3.98-3.59-3.51-1.02,.17-2.08,.03-3.13,.03q-7.74,0-7.39-7.7c0-.1,.01-.21,0-.31-.18-1.38,.45-1.8,1.78-1.76,2.82,.08,5.64,.02,8.46,.02,4.62,0,4.54,0,4.54-4.72,0-1.83-.38-2.56-2.41-2.51-5.95,.14-11.9,.12-17.85,0-1.93-.04-2.51,.54-2.47,2.47,.11,6.26,.04,12.53,.04,18.79Zm-119.88,7.3c.28-4.42-2.14-7.62-6.08-9.75-2.92-1.58-6-2.85-8.99-4.3-1.46-.71-2.74-1.64-2.46-3.56,.27-1.88,1.57-2.98,3.25-3.41,2.76-.71,5.37-.36,7.54,1.76,.42,.4,.64,1.38,1.7,.71,3.96-2.53,3.88-5.85-.26-8.03-.91-.48-1.88-.91-2.86-1.22-7.42-2.3-14.95,.92-17.17,7.3-2.35,6.75,.49,11.69,8.68,15.06,1.63,.67,3.34,1.21,4.9,2.01,2.3,1.19,3.8,2.94,3.15,5.79-.66,2.85-2.6,4.11-5.38,4.32-3.53,.27-6.37-1.07-8.31-3.97-.86-1.28-1.34-1.23-2.24-.2-.82,.94-1.71,1.82-2.65,2.65-.76,.68-.68,1.21-.19,2.07,3.05,5.27,10.55,7.87,17.73,6.07,5.88-1.48,9.66-6.56,9.64-13.3Zm77.41-28.52c-.09,.33-.17,.45-.14,.53,5.59,13.52,11.2,27.03,16.74,40.58,.61,1.48,1.65,1.25,2.77,1.34,1.28,.1,2.12-.24,2.65-1.52,5.4-13.05,10.86-26.08,16.27-39.12,.24-.58,.88-1.61-.3-1.71-2.28-.19-4.64-.36-6.86,.05-1.49,.27-1.49,2.29-2.03,3.57-3.23,7.72-6.4,15.46-9.76,23.6-.61-1.32-1.07-2.23-1.46-3.17-2.93-7.11-5.96-14.18-8.7-21.36-.87-2.27-2.03-3.08-4.34-2.82-1.62,.18-3.27,.04-4.84,.04Zm-44.19,11.28c0-2.93-.03-5.4,.01-7.87,.02-1-.43-1.39-1.32-1.79-4.09-1.81-8.16-2.84-12.72-1.72-12.14,2.98-19.6,15.58-16.13,27.53,3.41,11.74,16.03,17.86,28.04,13.55,.77-.28,2.09-.13,2.07-1.49-.04-2.61,.32-5.25-.23-8.04-6.49,5.99-15.46,4-19.22-.03-4.85-5.21-5.07-14.36-.33-19.76,4.98-5.67,11.87-5.94,19.81-.38Zm-73.35,9.94c0,6.36,.05,12.73-.03,19.09-.02,1.59,.38,2.34,2.08,2.12,.82-.11,1.68-.13,2.5,0,2.64,.42,3.29-.69,3.26-3.24-.13-11.37-.06-22.74-.06-34.11,0-5.13,0-5-5.09-5.14-2.28-.06-2.74,.7-2.7,2.82,.14,6.15,.05,12.31,.05,18.46Z" style="fill: #f4f4f4;"/>
  <path d="M195.54,269.5c8.05-2.44,16.4-3.56,24.57-5.48,29.7-6.96,58.83-15.74,86.84-27.87,23.95-10.37,46.82-22.67,66.28-40.46,9.37-8.56,17.52-18.11,23.5-29.39,.29-.56,.28-1.53,1.31-1.47-.02,25.26,0,50.53-.07,75.79-.04,13.76-8.49,24.65-21.52,27.96-2.84,.72-5.75,.9-8.68,.9-57.41,0-114.83,0-172.24,.02Z" style="fill: #fd6d01;"/>
  <path d="M235.94,163.55c.02-11.85,9.1-21.04,20.89-21.14,11.85-.1,21.28,9.24,21.32,21.1,.04,11.88-9.19,21.19-21.14,21.3-11.8,.11-21.1-9.27-21.08-21.27Z" style="fill: #fd6d01;"/>
  <path d="M123.02,163.41c0-6.06,.12-12.11-.06-18.16-.07-2.42,.7-3.01,3-2.88,5.4,.3,10.85-.47,16.17,1.12,9.64,2.87,14.6,10.44,13.89,21.31-.65,10.02-7.61,18.07-16.75,19.53-4.78,.77-9.58,.34-14.37,.55-1.94,.08-1.91-1-1.9-2.35,.02-6.37,.01-12.74,.01-19.11Zm7.79,.15c0,4.07-.02,8.14,.01,12.21,0,.85-.34,1.79,1.19,2.01,7.02,1.02,14.08-3.34,15.81-9.9,2.79-10.63-4.3-19.07-15.29-18.36-1.71,.11-1.75,.88-1.74,2.14,.04,3.96,.01,7.93,.01,11.89Z" style="fill: #050505;"/>
  <path d="M355.06,168.27c0,4.59-.1,9.18,.05,13.77,.07,2.13-.45,2.9-2.74,2.85-5.18-.11-5.18,.02-5.18-5.05,0-11.28,.13-22.56-.09-33.84-.06-3.16,.91-3.92,3.84-3.66,3.94,.35,7.93-.29,11.88,.42,6.11,1.09,9.56,4.5,10.47,10.38,.89,5.75-1.67,10.78-7.1,13.26-1.71,.78-1.69,1.29-.72,2.6,3.11,4.18,6.14,8.42,9.19,12.65,.65,.9,1.24,1.85,2.13,3.19-2.81,0-5.17-.12-7.51,.04-1.7,.11-2.64-.59-3.52-1.95-2.88-4.46-5.86-8.85-8.82-13.26-.38-.57-.83-1.09-1.25-1.63-.2,.08-.41,.15-.61,.23Zm0-12.51c0,1.56-.02,3.12,.01,4.68,.02,.68-.18,1.43,.79,1.79,1.77,.65,6.69-.98,7.93-2.71,1.43-1.99,1.34-5.74-.18-7.61-1.42-1.74-6-3.26-7.72-2.21-1.86,1.13-.41,3.21-.81,4.82-.1,.39-.01,.83-.01,1.24Z" style="fill: #080808;"/>
  <path d="M319.68,163.62c0-6.26,.07-12.53-.04-18.79-.03-1.93,.55-2.51,2.47-2.47,5.95,.11,11.9,.13,17.85,0,2.03-.05,2.41,.68,2.41,2.51,0,4.72,.08,4.72-4.54,4.72-2.82,0-5.64,.05-8.46-.02-1.33-.04-1.97,.38-1.78,1.76,.01,.1,0,.21,0,.31q-.35,7.7,7.39,7.7c1.04,0,2.11,.14,3.13-.03,2.88-.47,3.52,.7,3.59,3.51,.07,3.09-.81,3.98-3.8,3.67-2.69-.28-5.42,0-8.14-.08-1.47-.04-2.37,.18-2.2,2.01,.27,2.99-1.2,6.84,.55,8.78,1.64,1.81,5.51,.37,8.4,.55,.42,.03,.84,0,1.25,0,4.62,0,5.56,1.26,4.58,5.89-.24,1.15-.87,1.21-1.76,1.21-6.37-.01-12.74-.06-19.11,.03-2,.03-1.82-1.17-1.81-2.45,.01-6.26,0-12.53,0-18.79Z" style="fill: #080808;"/>
  <path d="M199.8,170.92c.02,6.74-3.76,11.83-9.64,13.3-7.18,1.8-14.68-.8-17.73-6.07-.5-.86-.57-1.39,.19-2.07,.93-.83,1.83-1.71,2.65-2.65,.9-1.04,1.38-1.08,2.24,.2,1.94,2.9,4.78,4.23,8.31,3.97,2.78-.21,4.72-1.47,5.38-4.32,.66-2.85-.85-4.6-3.15-5.79-1.56-.81-3.27-1.34-4.9-2.01-8.18-3.37-11.02-8.31-8.68-15.06,2.22-6.38,9.75-9.6,17.17-7.3,.99,.3,1.95,.73,2.86,1.22,4.14,2.18,4.22,5.5,.26,8.03-1.05,.67-1.28-.31-1.7-.71-2.18-2.12-4.78-2.47-7.54-1.76-1.69,.43-2.98,1.53-3.25,3.41-.27,1.91,1.01,2.85,2.46,3.56,2.99,1.46,6.07,2.73,8.99,4.3,3.94,2.13,6.36,5.33,6.08,9.75Z" style="fill: #050505;"/>
  <path d="M277.22,142.41c1.57,0,3.22,.15,4.84-.04,2.32-.26,3.48,.55,4.34,2.82,2.74,7.18,5.77,14.25,8.7,21.36,.39,.94,.85,1.85,1.46,3.17,3.36-8.14,6.53-15.88,9.76-23.6,.54-1.28,.54-3.3,2.03-3.57,2.22-.41,4.58-.24,6.86-.05,1.18,.1,.54,1.13,.3,1.71-5.42,13.04-10.87,26.07-16.27,39.12-.53,1.29-1.37,1.63-2.65,1.52-1.12-.09-2.17,.14-2.77-1.34-5.54-13.54-11.15-27.05-16.74-40.58-.03-.08,.05-.2,.14-.53Z" style="fill: #050505;"/>
  <path d="M233.03,153.69c-7.94-5.56-14.84-5.29-19.81,.38-4.75,5.41-4.52,14.56,.33,19.76,3.75,4.03,12.73,6.02,19.22,.03,.55,2.79,.19,5.43,.23,8.04,.02,1.36-1.3,1.21-2.07,1.49-12,4.31-24.63-1.81-28.04-13.55-3.48-11.95,3.99-24.55,16.13-27.53,4.55-1.12,8.63-.1,12.72,1.72,.89,.39,1.34,.79,1.32,1.79-.04,2.47-.01,4.93-.01,7.87Z" style="fill: #050505;"/>
  <path d="M159.68,163.63c0-6.15,.09-12.31-.05-18.46-.05-2.11,.41-2.88,2.7-2.82,5.09,.14,5.09,0,5.09,5.14,0,11.37-.08,22.74,.06,34.11,.03,2.56-.62,3.67-3.26,3.24-.81-.13-1.68-.11-2.5,0-1.7,.22-2.1-.53-2.08-2.12,.08-6.36,.03-12.73,.03-19.09Z" style="fill: #020202;"/>
  <path d="M130.81,163.55c0-3.96,.02-7.93-.01-11.89-.01-1.26,.02-2.03,1.74-2.14,10.99-.71,18.08,7.73,15.29,18.36-1.72,6.56-8.78,10.92-15.81,9.9-1.53-.22-1.18-1.16-1.19-2.01-.03-4.07-.01-8.14-.01-12.21Z" style="fill: #f4f4f4;"/>
  <path d="M355.06,155.76c0-.42-.08-.85,.01-1.24,.4-1.61-1.04-3.69,.81-4.82,1.72-1.05,6.3,.47,7.72,2.21,1.52,1.86,1.61,5.62,.18,7.61-1.24,1.73-6.16,3.36-7.93,2.71-.97-.36-.77-1.11-.79-1.79-.04-1.56-.01-3.12-.01-4.68Z" style="fill: #f4f4f4;"/>
</svg>