<?xml version="1.0" encoding="UTF-8"?>
<svg id="a" xmlns="http://www.w3.org/2000/svg" viewBox="0 0 500 327.31">
  <path d="M313.69,62.63c-24.14,0-46.32,8.48-63.69,22.63,22.75,18.51,37.28,46.74,37.28,78.36s-14.53,59.85-37.28,78.36c17.38,14.15,39.54,22.63,63.69,22.63,55.76,0,100.97-45.21,100.97-100.97s-45.21-100.97-100.97-100.97v-.03Z" style="fill: #0099df;"/>
  <path d="M212.72,163.6c0-31.62,14.53-59.85,37.28-78.36-17.38-14.15-39.54-22.63-63.69-22.63-55.76,0-100.97,45.21-100.97,100.97s45.21,100.97,100.97,100.97c24.14,0,46.32-8.48,63.69-22.63-22.75-18.51-37.28-46.74-37.28-78.36v.03Z" style="fill: #fe0015;"/>
  <path d="M287.28,163.6c0-31.62-14.53-59.85-37.28-78.36-22.75,18.51-37.28,46.74-37.28,78.36s14.53,59.85,37.28,78.36c22.75-18.51,37.28-46.74,37.28-78.36Z" style="fill: #6c6bbd;"/>
</svg>