<?xml version="1.0" encoding="UTF-8"?>
<svg id="a" xmlns="http://www.w3.org/2000/svg" viewBox="0 0 500 327.31">
  <path d="M80.32,143.51c-23.18,29.26,7.78,64.26,37.23,50.54-.17-.04-.33-.06-.52-.12,3.66-2.95,7.32-5.85,11.1-8.65,.1,.31,.21,.61,.31,.9,33.3-36.7-13.8-82.69-48.12-42.7v.02Z" style="fill: none;"/>
  <path d="M139.25,96.44C67.97,66.55-8.2,173.41,57.81,223.53c81.16,54.07,176.04-83,81.44-127.09Zm-9.87,29.62c1.55,6.27-4.43,7.73-8.65,3.7,2.98-2.47,5.86-3.7,8.65-3.7Zm0,62.92c-6.06,0-5.43,6.54-11.83,5.04-29.45,13.73-60.41-21.26-37.23-50.54,34.32-39.99,81.42,6,48.12,42.7,.31,.92,.61,1.84,.94,2.8Z" style="fill: #016dd0;"/>
  <path d="M447.73,96.44c-10.68-3.32-29.41-.77-41.6-1.63-22.41-3.45-25.1,25.27-35.51,39.23-15.82,32.57-37.79,62.9-50,96.91,8.49,.25,36.24,1.97,38.92-.23,21.49-38.5,24.66-43.44,53.62-98.49,3.34,14.57,4.01,29.64,6.17,44.42-5.31,1.3-14.69-.77-19.98,1.07,.69-.04,1.51-.04,2.49,.04,5.43,.04,10.85,.08,16.28,.12v1.23c-8.19,.84-19.77-1.25-22.22,7.4,.21-2.01-.15-3.93-.15-5.44-.44,1.34-.46,3.13,.15,5.44,3.53,3.34,7.61,6.61,11.68,10.05-.54-.98-.35-2.15,.65-3.87,4.37,.36,4.26,3.76,4.93,7.4-1.36-.61-2.49-1.15-3.41-1.65,9.24,8.03,17.75,17.14,18.21,30.04-.4,3.34,26.78,1.96,39.49,2.47-4.28-44.9-12.86-89.92-19.75-134.49l.02-.02Z" style="fill: #016dd0;"/>
  <path d="M317.23,189.61c-8.51-3.87-15.97-10.41-25.61-10.39-3.55,1.05-7.99,6.08-9.66,7.71-16.22,16.37-49.54,9.91-53.28-14.59-5.44-34.3,40.82-58.47,63.59-30.25,10.54,1.74,18.92-5,28.11-9.03,15.13-6.17-1.09-21.49-8.36-27.53-68.06-49.21-164.57,44.19-107.11,110.12,30.16,29.05,80.41,21.4,107.4-8.21,4.87-4.56,12.63-12.29,4.95-17.87l-.02,.04Zm-1.53,11.73c.75-6.29-6.46-4.06-6.17-8.65h2.47c1.3-4.51-6.21-2.88-4.93-7.4,6.96,3.45,20.44,9.16,8.65,16.05h-.02Z" style="fill: #026dd0;"/>
  <path d="M307.06,185.28c-1.28,4.52,6.23,2.89,4.93,7.4h-2.47c-.29,4.58,6.92,2.34,6.17,8.65,11.81-6.88-1.67-12.6-8.65-16.05h.02Z" style="fill: #076dc4;"/>
  <path d="M399.36,177.73c-2.99,.19-3.6,1.48-3.6,3.36,.58-1.71,1.86-2.74,3.6-3.36Z" style="fill: #1368b9;"/>
  <path d="M395.91,186.53c2.43-8.65,14.01-6.56,22.22-7.4v-1.23c-5.43-.06-10.85-.08-16.28-.12-.98-.08-1.78-.1-2.49-.04-1.74,.61-3.05,1.63-3.6,3.36,0,1.51,.36,3.43,.15,5.44v-.02Z" style="fill: #1368b9;"/>
  <path d="M117.03,193.93c.19,.06,.35,.08,.52,.12,3.05-1.42,6.1-3.37,9.05-5.9,.65-.65,1.25-1.28,1.84-1.94-.1-.31-.21-.61-.31-.9-3.78,2.8-7.46,5.69-11.1,8.65v-.02Z" style="fill: #0a6cc0;"/>
  <path d="M117.55,194.04c6.4,1.48,5.75-5.04,11.83-5.04-.33-.96-.63-1.88-.94-2.8-.59,.65-1.21,1.3-1.84,1.94-2.95,2.53-6,4.49-9.05,5.9Z" style="fill: #0a6cc0;"/>
  <path d="M129.38,126.06c-2.77,0-5.66,1.23-8.65,3.7,4.2,4.01,10.18,2.57,8.65-3.7Z" style="fill: #076cc5;"/>
  <path d="M409.79,198.43c-.73-.63-1.46-1.25-2.19-1.88,.38,.69,1.11,1.27,2.19,1.88Z" style="fill: #0c69c8;"/>
  <path d="M408.25,192.7c-1.02,1.73-1.21,2.89-.65,3.87,.73,.61,1.46,1.25,2.19,1.88,.9,.52,2.05,1.04,3.41,1.65-.67-3.64-.56-7.04-4.93-7.4h-.02Z" style="fill: #0c69c8;"/>
</svg>